<?xml version="1.0" encoding="utf-8"?>
<!-- Generator: Adobe Illustrator 21.0.0, SVG Export Plug-In . SVG Version: 6.00 Build 0)  -->
<svg version="1.1" xmlns="http://www.w3.org/2000/svg" xmlns:xlink="http://www.w3.org/1999/xlink" x="0px" y="0px"
	 viewBox="0 0 1200 500" style="enable-background:new 0 0 1200 500;" xml:space="preserve">
<style type="text/css">
	.st0{opacity:0.451;}
	.st1{fill:#FFFFFF;}
	.st2{fill:#00B140;}
</style>
<g id="Layer_36_xA0_Image_1_">
</g>
<g id="Layer_39_xA0_Image_1_">
</g>
<g id="Layer_39_copy_xA0_Image_1_" class="st0">
</g>
<g id="Main_promo_1_">
	<g id="Main_text_treatment_1_">
		<g id="Together_x2C__let_x2019_s_make_your_products_smarter._Your_customer_exper_1_">
			<g id="Together_x2C__let_x2019_s_make_your_products_smarter._Your_customer_exper_2_">
				<path class="st1" d="M155.1,383v-14h-4.9v-1.2h11.2v1.2h-4.9v14H155.1z"/>
				<path class="st1" d="M160.3,377.5c0-3.2,2-5.7,5.2-5.7c3.2,0,5.3,2.5,5.3,5.7c0,3.2-2,5.8-5.3,5.8
					C162.4,383.3,160.3,380.7,160.3,377.5z M169.6,377.5c0-2.4-1.4-4.7-4-4.7c-2.5,0-4,2.2-4,4.7c0,2.5,1.5,4.7,4,4.7
					C168.2,382.2,169.6,380,169.6,377.5z"/>
				<path class="st1" d="M173.7,385.8l0.7-1c1,1.1,2,1.5,3.7,1.5c2,0,3.7-1,3.7-3.5v-1.7c-0.8,1.1-2.2,2.1-3.8,2.1
					c-2.9,0-4.9-2.2-4.9-5.7c0-3.5,2-5.7,4.9-5.7c1.6,0,2.9,0.8,3.8,2V372h1.2v10.9c0,3.3-2.3,4.5-4.9,4.5
					C176.2,387.4,175,387.1,173.7,385.8z M181.8,380.2v-5.3c-0.6-1.1-2.1-2-3.6-2c-2.4,0-3.8,2-3.8,4.7c0,2.7,1.4,4.7,3.8,4.7
					C179.7,382.2,181.1,381.2,181.8,380.2z"/>
				<path class="st1" d="M185.8,377.5c0-3.2,2.2-5.7,5.3-5.7c3.3,0,5.2,2.6,5.2,5.8v0.3h-9.2c0.1,2.4,1.7,4.4,4.3,4.4
					c1.4,0,2.7-0.5,3.6-1.5l0.6,0.8c-1.1,1.1-2.5,1.8-4.3,1.8C188.1,383.3,185.8,380.9,185.8,377.5z M191,372.8
					c-2.6,0-3.9,2.3-4,4.2h8C195,375.1,193.8,372.8,191,372.8z"/>
				<path class="st1" d="M199.3,380.9v-7.8h-1.8v-1h1.8v-3h1.2v3h2.2v1h-2.2v7.6c0,0.9,0.4,1.5,1.1,1.5c0.5,0,1-0.2,1.2-0.5l0.5,0.9
					c-0.4,0.4-1,0.7-1.9,0.7C200,383.3,199.3,382.4,199.3,380.9z"/>
				<path class="st1" d="M212.5,383v-7.5c0-2.1-1.1-2.7-2.7-2.7c-1.4,0-2.9,0.9-3.6,1.9v8.3h-1.2v-15.1h1.2v5.8
					c0.8-1,2.4-1.9,3.9-1.9c2.2,0,3.5,1,3.5,3.5v7.7H212.5z"/>
				<path class="st1" d="M216.5,377.5c0-3.2,2.2-5.7,5.3-5.7c3.3,0,5.2,2.6,5.2,5.8v0.3h-9.2c0.1,2.4,1.7,4.4,4.3,4.4
					c1.4,0,2.7-0.5,3.6-1.5l0.6,0.8c-1.1,1.1-2.5,1.8-4.3,1.8C218.7,383.3,216.5,380.9,216.5,377.5z M221.7,372.8
					c-2.6,0-3.9,2.3-4,4.2h8C225.7,375.1,224.5,372.8,221.7,372.8z"/>
				<path class="st1" d="M229.7,383v-11h1.2v1.9c0.9-1.2,2.2-2.1,3.7-2.1v1.3c-0.2,0-0.4,0-0.6,0c-1.1,0-2.6,1-3.1,2v8H229.7z"/>
				<path class="st1" d="M235,385.8l-0.7-0.5c0.7-0.5,1.3-1.4,1.3-2.1c0,0-0.2,0-0.2,0c-0.5,0-0.9-0.4-0.9-1c0-0.5,0.4-1,1-1
					c0.6,0,1.2,0.5,1.2,1.5C236.6,383.9,235.8,385.1,235,385.8z"/>
				<path class="st1" d="M245.2,383v-15.1h1.2V383H245.2z"/>
				<path class="st1" d="M249.2,377.5c0-3.2,2.2-5.7,5.3-5.7c3.3,0,5.2,2.6,5.2,5.8v0.3h-9.2c0.1,2.4,1.7,4.4,4.3,4.4
					c1.4,0,2.7-0.5,3.6-1.5l0.6,0.8c-1.1,1.1-2.5,1.8-4.3,1.8C251.5,383.3,249.2,380.9,249.2,377.5z M254.5,372.8
					c-2.6,0-3.9,2.3-4,4.2h8C258.5,375.1,257.2,372.8,254.5,372.8z"/>
				<path class="st1" d="M262.7,380.9v-7.8h-1.8v-1h1.8v-3h1.2v3h2.2v1h-2.2v7.6c0,0.9,0.4,1.5,1.1,1.5c0.5,0,1-0.2,1.2-0.5l0.5,0.9
					c-0.4,0.4-1,0.7-1.9,0.7C263.4,383.3,262.7,382.4,262.7,380.9z"/>
				<path class="st1" d="M268.6,372.2l-0.7-0.5c0.7-0.5,1.3-1.4,1.3-2.1c0,0-0.2,0-0.2,0c-0.5,0-0.9-0.4-0.9-1c0-0.5,0.4-1,1-1
					c0.6,0,1.2,0.5,1.2,1.5C270.3,370.3,269.5,371.5,268.6,372.2z"/>
				<path class="st1" d="M271.6,381.5l0.7-0.9c0.7,0.9,2,1.6,3.5,1.6c1.8,0,2.9-1,2.9-2.2c0-3-6.9-1.3-6.9-5.2c0-1.7,1.4-3,3.9-3
					c1.9,0,3.1,0.7,3.9,1.6l-0.7,0.8c-0.6-0.9-1.8-1.5-3.3-1.5c-1.7,0-2.7,0.9-2.7,2c0,2.7,6.9,1.1,6.9,5.3c0,1.8-1.4,3.2-4.1,3.2
					C274.1,383.3,272.7,382.7,271.6,381.5z"/>
				<path class="st1" d="M301.5,383v-7.7c0-1.5-0.7-2.5-2.2-2.5c-1.2,0-2.5,0.9-3.1,1.9v8.3h-1.2v-7.7c0-1.5-0.6-2.5-2.2-2.5
					c-1.2,0-2.5,0.9-3.2,1.9v8.3h-1.2v-11h1.2v1.7c0.5-0.7,2-1.9,3.5-1.9c1.7,0,2.6,1,2.9,2.1c0.6-1,2.1-2.1,3.6-2.1
					c2,0,3,1.1,3,3.3v7.9H301.5z"/>
				<path class="st1" d="M313.1,383v-1.3c-1,1.1-2.2,1.6-3.7,1.6c-1.9,0-3.8-1.3-3.8-3.7c0-2.4,1.9-3.6,3.8-3.6
					c1.5,0,2.8,0.5,3.7,1.6v-2.2c0-1.6-1.3-2.5-2.9-2.5c-1.4,0-2.5,0.5-3.4,1.6l-0.7-0.8c1.1-1.2,2.4-1.8,4.2-1.8c2.2,0,4,1.1,4,3.5
					v7.7H313.1z M313.1,380.8v-2.4c-0.8-1-2-1.5-3.3-1.5c-1.8,0-3,1.2-3,2.7c0,1.5,1.2,2.7,3,2.7
					C311.1,382.3,312.3,381.8,313.1,380.8z"/>
				<path class="st1" d="M325.3,383l-4.4-5.2l-2,1.9v3.3h-1.2v-15.1h1.2v10.4l6.4-6.3h1.6l-5.1,4.9l5.1,6H325.3z"/>
				<path class="st1" d="M328.3,377.5c0-3.2,2.2-5.7,5.3-5.7c3.3,0,5.2,2.6,5.2,5.8v0.3h-9.2c0.1,2.4,1.7,4.4,4.3,4.4
					c1.4,0,2.7-0.5,3.6-1.5l0.6,0.8c-1.1,1.1-2.5,1.8-4.3,1.8C330.5,383.3,328.3,380.9,328.3,377.5z M333.5,372.8
					c-2.6,0-3.9,2.3-4,4.2h8C337.5,375.1,336.2,372.8,333.5,372.8z"/>
				<path class="st1" d="M346.6,386.2c0.2,0.1,0.7,0.2,1,0.2c0.7,0,1.2-0.3,1.7-1.3l0.9-2l-4.7-11.1h1.3l4,9.6l3.9-9.6h1.3
					l-5.7,13.4c-0.6,1.4-1.5,2-2.8,2c-0.4,0-0.9-0.1-1.2-0.2L346.6,386.2z"/>
				<path class="st1" d="M357.2,377.5c0-3.2,2-5.7,5.2-5.7c3.2,0,5.3,2.5,5.3,5.7c0,3.2-2,5.8-5.3,5.8
					C359.3,383.3,357.2,380.7,357.2,377.5z M366.5,377.5c0-2.4-1.4-4.7-4-4.7c-2.5,0-4,2.2-4,4.7c0,2.5,1.5,4.7,4,4.7
					C365.1,382.2,366.5,380,366.5,377.5z"/>
				<path class="st1" d="M378,383v-1.6c-0.9,1-2.4,1.9-3.9,1.9c-2.2,0-3.5-1-3.5-3.5V372h1.2v7.4c0,2.1,1.1,2.7,2.7,2.7
					c1.4,0,2.8-0.8,3.6-1.8V372h1.2v11H378z"/>
				<path class="st1" d="M382.6,383v-11h1.2v1.9c0.9-1.2,2.2-2.1,3.7-2.1v1.3c-0.2,0-0.4,0-0.6,0c-1.1,0-2.6,1-3.1,2v8H382.6z"/>
				<path class="st1" d="M396.4,381.2v5.9h-1.2V372h1.2v1.7c0.8-1.1,2.2-2,3.8-2c2.9,0,4.9,2.2,4.9,5.7c0,3.5-2,5.8-4.9,5.8
					C398.7,383.3,397.3,382.5,396.4,381.2z M403.8,377.5c0-2.7-1.4-4.7-3.8-4.7c-1.5,0-3,0.9-3.6,2v5.4c0.6,1,2.1,2,3.6,2
					C402.5,382.2,403.8,380.2,403.8,377.5z"/>
				<path class="st1" d="M407.9,383v-11h1.2v1.9c0.9-1.2,2.2-2.1,3.7-2.1v1.3c-0.2,0-0.4,0-0.6,0c-1.1,0-2.6,1-3.1,2v8H407.9z"/>
				<path class="st1" d="M414.2,377.5c0-3.2,2-5.7,5.2-5.7c3.2,0,5.3,2.5,5.3,5.7c0,3.2-2,5.8-5.3,5.8
					C416.3,383.3,414.2,380.7,414.2,377.5z M423.5,377.5c0-2.4-1.4-4.7-4-4.7c-2.5,0-4,2.2-4,4.7c0,2.5,1.5,4.7,4,4.7
					C422,382.2,423.5,380,423.5,377.5z"/>
				<path class="st1" d="M435.6,383v-1.7c-0.8,1.1-2.2,2-3.8,2c-2.9,0-4.9-2.2-4.9-5.7c0-3.5,2-5.8,4.9-5.8c1.6,0,3,0.8,3.8,2v-5.9
					h1.2V383H435.6z M435.6,380.2v-5.4c-0.6-1.1-2.1-2-3.6-2c-2.4,0-3.8,2-3.8,4.7s1.4,4.7,3.8,4.7
					C433.6,382.2,435,381.3,435.6,380.2z"/>
				<path class="st1" d="M447.7,383v-1.6c-0.9,1-2.4,1.9-3.9,1.9c-2.2,0-3.5-1-3.5-3.5V372h1.2v7.4c0,2.1,1.1,2.7,2.7,2.7
					c1.4,0,2.8-0.8,3.6-1.8V372h1.2v11H447.7z"/>
				<path class="st1" d="M451.7,377.5c0-3.2,2.1-5.7,5.3-5.7c1.9,0,3,0.7,3.9,1.9l-0.8,0.7c-0.8-1.1-1.8-1.5-3-1.5
					c-2.6,0-4.1,2-4.1,4.7s1.6,4.7,4.1,4.7c1.2,0,2.2-0.5,3-1.5l0.8,0.7c-0.9,1.1-2,1.9-3.9,1.9
					C453.8,383.3,451.7,380.7,451.7,377.5z"/>
				<path class="st1" d="M463.5,380.9v-7.8h-1.8v-1h1.8v-3h1.2v3h2.2v1h-2.2v7.6c0,0.9,0.4,1.5,1.1,1.5c0.5,0,1-0.2,1.2-0.5l0.5,0.9
					c-0.4,0.4-1,0.7-1.9,0.7C464.2,383.3,463.5,382.4,463.5,380.9z"/>
				<path class="st1" d="M468.4,381.5l0.7-0.9c0.7,0.9,2,1.6,3.5,1.6c1.8,0,2.9-1,2.9-2.2c0-3-6.9-1.3-6.9-5.2c0-1.7,1.4-3,3.9-3
					c1.9,0,3.1,0.7,3.9,1.6l-0.7,0.8c-0.6-0.9-1.8-1.5-3.3-1.5c-1.7,0-2.7,0.9-2.7,2c0,2.7,6.9,1.1,6.9,5.3c0,1.8-1.4,3.2-4.1,3.2
					C470.8,383.3,469.4,382.7,468.4,381.5z"/>
				<path class="st1" d="M484.2,381.5l0.7-0.9c0.7,0.9,2,1.6,3.5,1.6c1.8,0,2.9-1,2.9-2.2c0-3-6.9-1.3-6.9-5.2c0-1.7,1.4-3,3.9-3
					c1.9,0,3.1,0.7,3.9,1.6l-0.7,0.8c-0.6-0.9-1.8-1.5-3.3-1.5c-1.7,0-2.7,0.9-2.7,2c0,2.7,6.9,1.1,6.9,5.3c0,1.8-1.4,3.2-4.1,3.2
					C486.6,383.3,485.3,382.7,484.2,381.5z"/>
				<path class="st1" d="M508.4,383v-7.7c0-1.5-0.7-2.5-2.2-2.5c-1.2,0-2.5,0.9-3.1,1.9v8.3h-1.2v-7.7c0-1.5-0.6-2.5-2.2-2.5
					c-1.2,0-2.5,0.9-3.2,1.9v8.3h-1.2v-11h1.2v1.7c0.5-0.7,2-1.9,3.5-1.9c1.7,0,2.6,1,2.9,2.1c0.6-1,2.1-2.1,3.6-2.1
					c2,0,3,1.1,3,3.3v7.9H508.4z"/>
				<path class="st1" d="M520,383v-1.3c-1,1.1-2.2,1.6-3.7,1.6c-1.9,0-3.8-1.3-3.8-3.7c0-2.4,1.9-3.6,3.8-3.6c1.5,0,2.8,0.5,3.7,1.6
					v-2.2c0-1.6-1.3-2.5-2.9-2.5c-1.4,0-2.5,0.5-3.4,1.6l-0.7-0.8c1.1-1.2,2.4-1.8,4.2-1.8c2.2,0,4,1.1,4,3.5v7.7H520z M520,380.8
					v-2.4c-0.8-1-2-1.5-3.3-1.5c-1.8,0-3,1.2-3,2.7c0,1.5,1.2,2.7,3,2.7C518,382.3,519.2,381.8,520,380.8z"/>
				<path class="st1" d="M524.6,383v-11h1.2v1.9c0.9-1.2,2.2-2.1,3.7-2.1v1.3c-0.2,0-0.4,0-0.6,0c-1.1,0-2.6,1-3.1,2v8H524.6z"/>
				<path class="st1" d="M531.8,380.9v-7.8H530v-1h1.8v-3h1.2v3h2.2v1H533v7.6c0,0.9,0.4,1.5,1.1,1.5c0.5,0,1-0.2,1.2-0.5l0.5,0.9
					c-0.4,0.4-1,0.7-1.9,0.7C532.5,383.3,531.8,382.4,531.8,380.9z"/>
				<path class="st1" d="M537,377.5c0-3.2,2.2-5.7,5.3-5.7c3.3,0,5.2,2.6,5.2,5.8v0.3h-9.2c0.1,2.4,1.7,4.4,4.3,4.4
					c1.4,0,2.7-0.5,3.6-1.5l0.6,0.8c-1.1,1.1-2.5,1.8-4.3,1.8C539.3,383.3,537,380.9,537,377.5z M542.2,372.8c-2.6,0-3.9,2.3-4,4.2
					h8C546.2,375.1,545,372.8,542.2,372.8z"/>
				<path class="st1" d="M550.2,383v-11h1.2v1.9c0.9-1.2,2.2-2.1,3.7-2.1v1.3c-0.2,0-0.4,0-0.6,0c-1.1,0-2.6,1-3.1,2v8H550.2z"/>
				<path class="st1" d="M555,382.2c0-0.5,0.5-1,1-1c0.5,0,1,0.5,1,1c0,0.5-0.5,1-1,1C555.5,383.2,555,382.7,555,382.2z"/>
				<path class="st1" d="M570.3,383v-6.5l-6-8.7h1.6l5.1,7.4l5.1-7.4h1.6l-6,8.7v6.5H570.3z"/>
				<path class="st1" d="M576,377.5c0-3.2,2-5.7,5.2-5.7c3.2,0,5.3,2.5,5.3,5.7c0,3.2-2,5.8-5.3,5.8C578,383.3,576,380.7,576,377.5z
					 M585.3,377.5c0-2.4-1.4-4.7-4-4.7c-2.5,0-4,2.2-4,4.7c0,2.5,1.5,4.7,4,4.7C583.8,382.2,585.3,380,585.3,377.5z"/>
				<path class="st1" d="M596.7,383v-1.6c-0.9,1-2.4,1.9-3.9,1.9c-2.2,0-3.5-1-3.5-3.5V372h1.2v7.4c0,2.1,1.1,2.7,2.7,2.7
					c1.4,0,2.8-0.8,3.6-1.8V372h1.2v11H596.7z"/>
				<path class="st1" d="M601.4,383v-11h1.2v1.9c0.9-1.2,2.2-2.1,3.7-2.1v1.3c-0.2,0-0.4,0-0.6,0c-1.1,0-2.6,1-3.1,2v8H601.4z"/>
				<path class="st1" d="M613.4,377.5c0-3.2,2.1-5.7,5.3-5.7c1.9,0,3,0.7,3.9,1.9l-0.8,0.7c-0.8-1.1-1.8-1.5-3-1.5
					c-2.6,0-4.1,2-4.1,4.7s1.6,4.7,4.1,4.7c1.2,0,2.2-0.5,3-1.5l0.8,0.7c-0.9,1.1-2,1.9-3.9,1.9
					C615.5,383.3,613.4,380.7,613.4,377.5z"/>
				<path class="st1" d="M632.4,383v-1.6c-0.9,1-2.4,1.9-3.9,1.9c-2.2,0-3.4-1-3.4-3.5V372h1.2v7.4c0,2.1,1.1,2.7,2.7,2.7
					c1.4,0,2.8-0.8,3.6-1.8V372h1.2v11H632.4z"/>
				<path class="st1" d="M636,381.5l0.7-0.9c0.7,0.9,2,1.6,3.5,1.6c1.8,0,2.9-1,2.9-2.2c0-3-6.9-1.3-6.9-5.2c0-1.7,1.4-3,3.9-3
					c1.9,0,3.1,0.7,3.9,1.6l-0.7,0.8c-0.6-0.9-1.8-1.5-3.3-1.5c-1.7,0-2.7,0.9-2.7,2c0,2.7,6.9,1.1,6.9,5.3c0,1.8-1.4,3.2-4.1,3.2
					C638.5,383.3,637.1,382.7,636,381.5z"/>
				<path class="st1" d="M647.4,380.9v-7.8h-1.8v-1h1.8v-3h1.2v3h2.2v1h-2.2v7.6c0,0.9,0.4,1.5,1.1,1.5c0.5,0,1-0.2,1.2-0.5l0.5,0.9
					c-0.4,0.4-1,0.7-1.9,0.7C648.1,383.3,647.4,382.4,647.4,380.9z"/>
				<path class="st1" d="M652.6,377.5c0-3.2,2-5.7,5.2-5.7c3.2,0,5.3,2.5,5.3,5.7c0,3.2-2,5.8-5.3,5.8
					C654.6,383.3,652.6,380.7,652.6,377.5z M661.8,377.5c0-2.4-1.4-4.7-4-4.7c-2.5,0-4,2.2-4,4.7c0,2.5,1.5,4.7,4,4.7
					C660.4,382.2,661.8,380,661.8,377.5z"/>
				<path class="st1" d="M679,383v-7.7c0-1.5-0.7-2.5-2.2-2.5c-1.2,0-2.5,0.9-3.1,1.9v8.3h-1.2v-7.7c0-1.5-0.6-2.5-2.2-2.5
					c-1.2,0-2.5,0.9-3.2,1.9v8.3h-1.2v-11h1.2v1.7c0.5-0.7,2-1.9,3.5-1.9c1.7,0,2.6,1,2.9,2.1c0.6-1,2.1-2.1,3.6-2.1
					c2,0,3,1.1,3,3.3v7.9H679z"/>
				<path class="st1" d="M683,377.5c0-3.2,2.2-5.7,5.3-5.7c3.3,0,5.2,2.6,5.2,5.8v0.3h-9.2c0.1,2.4,1.7,4.4,4.3,4.4
					c1.4,0,2.7-0.5,3.6-1.5l0.6,0.8c-1.1,1.1-2.5,1.8-4.3,1.8C685.3,383.3,683,380.9,683,377.5z M688.2,372.8c-2.6,0-3.9,2.3-4,4.2
					h8C692.2,375.1,691,372.8,688.2,372.8z"/>
				<path class="st1" d="M696.2,383v-11h1.2v1.9c0.9-1.2,2.2-2.1,3.7-2.1v1.3c-0.2,0-0.4,0-0.6,0c-1.1,0-2.6,1-3.1,2v8H696.2z"/>
				<path class="st1" d="M708.2,377.5c0-3.2,2.2-5.7,5.3-5.7c3.3,0,5.2,2.6,5.2,5.8v0.3h-9.2c0.1,2.4,1.7,4.4,4.3,4.4
					c1.4,0,2.7-0.5,3.6-1.5l0.6,0.8c-1.1,1.1-2.5,1.8-4.3,1.8C710.5,383.3,708.2,380.9,708.2,377.5z M713.5,372.8
					c-2.6,0-3.9,2.3-4,4.2h8C717.5,375.1,716.2,372.8,713.5,372.8z"/>
				<path class="st1" d="M728.7,383l-3.6-4.8l-3.7,4.8H720l4.3-5.6l-4.1-5.3h1.4l3.4,4.5l3.4-4.5h1.4l-4.1,5.3l4.3,5.6H728.7z"/>
				<path class="st1" d="M733.3,381.2v5.9h-1.2V372h1.2v1.7c0.8-1.1,2.2-2,3.8-2c2.9,0,4.9,2.2,4.9,5.7c0,3.5-2,5.8-4.9,5.8
					C735.6,383.3,734.2,382.5,733.3,381.2z M740.8,377.5c0-2.7-1.4-4.7-3.8-4.7c-1.5,0-3,0.9-3.6,2v5.4c0.6,1,2.1,2,3.6,2
					C739.4,382.2,740.8,380.2,740.8,377.5z"/>
				<path class="st1" d="M744.2,377.5c0-3.2,2.2-5.7,5.3-5.7c3.3,0,5.2,2.6,5.2,5.8v0.3h-9.2c0.1,2.4,1.7,4.4,4.3,4.4
					c1.4,0,2.7-0.5,3.6-1.5l0.6,0.8c-1.1,1.1-2.5,1.8-4.3,1.8C746.4,383.3,744.2,380.9,744.2,377.5z M749.4,372.8
					c-2.6,0-3.9,2.3-4,4.2h8C753.4,375.1,752.2,372.8,749.4,372.8z"/>
				<path class="st1" d="M757.4,383v-11h1.2v1.9c0.9-1.2,2.2-2.1,3.7-2.1v1.3c-0.2,0-0.4,0-0.6,0c-1.1,0-2.6,1-3.1,2v8H757.4z"/>
				<path class="st1" d="M764.1,369.4c0-0.5,0.4-0.9,0.9-0.9c0.5,0,0.9,0.4,0.9,0.9s-0.4,0.9-0.9,0.9
					C764.5,370.3,764.1,369.9,764.1,369.4z M764.4,383v-11h1.2v11H764.4z"/>
				<path class="st1" d="M768.4,377.5c0-3.2,2.2-5.7,5.3-5.7c3.3,0,5.2,2.6,5.2,5.8v0.3h-9.2c0.1,2.4,1.7,4.4,4.3,4.4
					c1.4,0,2.7-0.5,3.6-1.5l0.6,0.8c-1.1,1.1-2.5,1.8-4.3,1.8C770.7,383.3,768.4,380.9,768.4,377.5z M773.6,372.8
					c-2.6,0-3.9,2.3-4,4.2h8C777.6,375.1,776.4,372.8,773.6,372.8z"/>
				<path class="st1" d="M789.1,383v-7.4c0-2.1-1.1-2.7-2.7-2.7c-1.4,0-2.9,0.9-3.6,1.9v8.3h-1.2v-11h1.2v1.7c0.8-1,2.4-1.9,3.9-1.9
					c2.2,0,3.5,1.1,3.5,3.6v7.7H789.1z"/>
				<path class="st1" d="M793.1,377.5c0-3.2,2.1-5.7,5.3-5.7c1.9,0,3,0.7,3.9,1.9l-0.8,0.7c-0.8-1.1-1.8-1.5-3-1.5
					c-2.6,0-4.1,2-4.1,4.7s1.6,4.7,4.1,4.7c1.2,0,2.2-0.5,3-1.5l0.8,0.7c-0.9,1.1-2,1.9-3.9,1.9
					C795.2,383.3,793.1,380.7,793.1,377.5z"/>
				<path class="st1" d="M804.1,377.5c0-3.2,2.2-5.7,5.3-5.7c3.3,0,5.2,2.6,5.2,5.8v0.3h-9.2c0.1,2.4,1.7,4.4,4.3,4.4
					c1.4,0,2.7-0.5,3.6-1.5l0.6,0.8c-1.1,1.1-2.5,1.8-4.3,1.8C806.3,383.3,804.1,380.9,804.1,377.5z M809.3,372.8
					c-2.6,0-3.9,2.3-4,4.2h8C813.3,375.1,812,372.8,809.3,372.8z"/>
				<path class="st1" d="M816.4,381.5l0.7-0.9c0.7,0.9,2,1.6,3.5,1.6c1.8,0,2.9-1,2.9-2.2c0-3-6.9-1.3-6.9-5.2c0-1.7,1.4-3,3.9-3
					c1.9,0,3.1,0.7,3.9,1.6l-0.7,0.8c-0.6-0.9-1.8-1.5-3.3-1.5c-1.7,0-2.7,0.9-2.7,2c0,2.7,6.9,1.1,6.9,5.3c0,1.8-1.4,3.2-4.1,3.2
					C818.8,383.3,817.4,382.7,816.4,381.5z"/>
				<path class="st1" d="M846.2,383v-7.7c0-1.5-0.7-2.5-2.2-2.5c-1.2,0-2.5,0.9-3.1,1.9v8.3h-1.2v-7.7c0-1.5-0.6-2.5-2.2-2.5
					c-1.2,0-2.5,0.9-3.2,1.9v8.3h-1.2v-11h1.2v1.7c0.5-0.7,2-1.9,3.5-1.9c1.7,0,2.6,1,2.9,2.1c0.6-1,2.1-2.1,3.6-2.1
					c2,0,3,1.1,3,3.3v7.9H846.2z"/>
				<path class="st1" d="M850.2,377.5c0-3.2,2-5.7,5.2-5.7c3.2,0,5.3,2.5,5.3,5.7c0,3.2-2,5.8-5.3,5.8
					C852.3,383.3,850.2,380.7,850.2,377.5z M859.5,377.5c0-2.4-1.4-4.7-4-4.7c-2.5,0-4,2.2-4,4.7c0,2.5,1.5,4.7,4,4.7
					C858,382.2,859.5,380,859.5,377.5z"/>
				<path class="st1" d="M863.6,383v-11h1.2v1.9c0.9-1.2,2.2-2.1,3.7-2.1v1.3c-0.2,0-0.4,0-0.6,0c-1.1,0-2.6,1-3.1,2v8H863.6z"/>
				<path class="st1" d="M869.9,377.5c0-3.2,2.2-5.7,5.3-5.7c3.3,0,5.2,2.6,5.2,5.8v0.3h-9.2c0.1,2.4,1.7,4.4,4.3,4.4
					c1.4,0,2.7-0.5,3.6-1.5l0.6,0.8c-1.1,1.1-2.5,1.8-4.3,1.8C872.2,383.3,869.9,380.9,869.9,377.5z M875.2,372.8
					c-2.6,0-3.9,2.3-4,4.2h8C879.1,375.1,877.9,372.8,875.2,372.8z"/>
				<path class="st1" d="M888.2,377.5c0-3.2,2.2-5.7,5.3-5.7c3.3,0,5.2,2.6,5.2,5.8v0.3h-9.2c0.1,2.4,1.7,4.4,4.3,4.4
					c1.4,0,2.7-0.5,3.6-1.5l0.6,0.8c-1.1,1.1-2.5,1.8-4.3,1.8C890.5,383.3,888.2,380.9,888.2,377.5z M893.4,372.8
					c-2.6,0-3.9,2.3-4,4.2h8C897.4,375.1,896.2,372.8,893.4,372.8z"/>
				<path class="st1" d="M908.7,383l-3.6-4.8l-3.7,4.8H900l4.3-5.6l-4.1-5.3h1.4l3.4,4.5l3.4-4.5h1.4l-4.1,5.3l4.3,5.6H908.7z"/>
				<path class="st1" d="M910.6,377.5c0-3.2,2.1-5.7,5.3-5.7c1.9,0,3,0.7,3.9,1.9l-0.8,0.7c-0.8-1.1-1.8-1.5-3-1.5
					c-2.6,0-4.1,2-4.1,4.7s1.6,4.7,4.1,4.7c1.2,0,2.2-0.5,3-1.5l0.8,0.7c-0.9,1.1-2,1.9-3.9,1.9
					C912.7,383.3,910.6,380.7,910.6,377.5z"/>
				<path class="st1" d="M921.6,377.5c0-3.2,2.2-5.7,5.3-5.7c3.3,0,5.2,2.6,5.2,5.8v0.3h-9.2c0.1,2.4,1.7,4.4,4.3,4.4
					c1.4,0,2.7-0.5,3.6-1.5l0.6,0.8c-1.1,1.1-2.5,1.8-4.3,1.8C923.9,383.3,921.6,380.9,921.6,377.5z M926.8,372.8
					c-2.6,0-3.9,2.3-4,4.2h8C930.8,375.1,929.6,372.8,926.8,372.8z"/>
				<path class="st1" d="M936,381.2v5.9h-1.2V372h1.2v1.7c0.8-1.1,2.2-2,3.8-2c2.9,0,4.9,2.2,4.9,5.7c0,3.5-2,5.8-4.9,5.8
					C938.3,383.3,936.9,382.5,936,381.2z M943.5,377.5c0-2.7-1.4-4.7-3.8-4.7c-1.5,0-3,0.9-3.6,2v5.4c0.6,1,2.1,2,3.6,2
					C942.1,382.2,943.5,380.2,943.5,377.5z"/>
				<path class="st1" d="M947.7,380.9v-7.8h-1.8v-1h1.8v-3h1.2v3h2.2v1h-2.2v7.6c0,0.9,0.4,1.5,1.1,1.5c0.5,0,1-0.2,1.2-0.5l0.5,0.9
					c-0.4,0.4-1,0.7-1.9,0.7C948.4,383.3,947.7,382.4,947.7,380.9z"/>
				<path class="st1" d="M953.2,369.4c0-0.5,0.4-0.9,0.9-0.9c0.5,0,0.9,0.4,0.9,0.9s-0.4,0.9-0.9,0.9
					C953.6,370.3,953.2,369.9,953.2,369.4z M953.5,383v-11h1.2v11H953.5z"/>
				<path class="st1" d="M957.5,377.5c0-3.2,2-5.7,5.2-5.7c3.2,0,5.3,2.5,5.3,5.7c0,3.2-2,5.8-5.3,5.8
					C959.5,383.3,957.5,380.7,957.5,377.5z M966.8,377.5c0-2.4-1.4-4.7-4-4.7c-2.5,0-4,2.2-4,4.7c0,2.5,1.5,4.7,4,4.7
					C965.3,382.2,966.8,380,966.8,377.5z"/>
				<path class="st1" d="M978.2,383v-7.4c0-2.1-1.1-2.7-2.7-2.7c-1.4,0-2.9,0.9-3.6,1.9v8.3h-1.2v-11h1.2v1.7c0.8-1,2.4-1.9,3.9-1.9
					c2.2,0,3.5,1.1,3.5,3.6v7.7H978.2z"/>
				<path class="st1" d="M989.8,383v-1.3c-1,1.1-2.2,1.6-3.7,1.6c-1.9,0-3.8-1.3-3.8-3.7c0-2.4,1.9-3.6,3.8-3.6
					c1.5,0,2.8,0.5,3.7,1.6v-2.2c0-1.6-1.3-2.5-2.9-2.5c-1.4,0-2.5,0.5-3.5,1.6l-0.7-0.8c1.1-1.2,2.4-1.8,4.2-1.8c2.2,0,4,1.1,4,3.5
					v7.7H989.8z M989.8,380.8v-2.4c-0.8-1-2-1.5-3.3-1.5c-1.8,0-3,1.2-3,2.7c0,1.5,1.2,2.7,3,2.7
					C987.8,382.3,989.1,381.8,989.8,380.8z"/>
				<path class="st1" d="M994.5,383v-15.1h1.2V383H994.5z"/>
				<path class="st1" d="M998.7,382.2c0-0.5,0.5-1,1-1c0.5,0,1,0.5,1,1c0,0.5-0.5,1-1,1C999.2,383.2,998.7,382.7,998.7,382.2z"/>
				<path class="st1" d="M1014,383v-6.5l-6-8.7h1.6l5.1,7.4l5.1-7.4h1.6l-6,8.7v6.5H1014z"/>
				<path class="st1" d="M1019.7,377.5c0-3.2,2-5.7,5.2-5.7c3.2,0,5.3,2.5,5.3,5.7c0,3.2-2,5.8-5.3,5.8
					C1021.8,383.3,1019.7,380.7,1019.7,377.5z M1029,377.5c0-2.4-1.4-4.7-4-4.7c-2.5,0-4,2.2-4,4.7c0,2.5,1.5,4.7,4,4.7
					C1027.6,382.2,1029,380,1029,377.5z"/>
				<path class="st1" d="M1040.5,383v-1.6c-0.9,1-2.4,1.9-3.9,1.9c-2.2,0-3.5-1-3.5-3.5V372h1.2v7.4c0,2.1,1.1,2.7,2.7,2.7
					c1.4,0,2.8-0.8,3.6-1.8V372h1.2v11H1040.5z"/>
				<path class="st1" d="M1045.1,383v-11h1.2v1.9c0.9-1.2,2.2-2.1,3.7-2.1v1.3c-0.2,0-0.4,0-0.6,0c-1.1,0-2.6,1-3.1,2v8H1045.1z"/>
				<path class="st1" d="M152.4,408.5v5.9h-1.2v-15.1h1.2v1.7c0.8-1.1,2.2-2,3.8-2c2.9,0,4.9,2.2,4.9,5.7c0,3.5-2,5.8-4.9,5.8
					C154.6,410.5,153.2,409.7,152.4,408.5z M159.8,404.7c0-2.7-1.4-4.7-3.8-4.7c-1.5,0-3,0.9-3.6,2v5.4c0.6,1,2.1,2,3.6,2
					C158.4,409.4,159.8,407.4,159.8,404.7z"/>
				<path class="st1" d="M163.2,404.7c0-3.2,2.2-5.7,5.3-5.7c3.3,0,5.2,2.6,5.2,5.8v0.3h-9.2c0.1,2.4,1.7,4.4,4.3,4.4
					c1.4,0,2.7-0.5,3.6-1.5l0.6,0.8c-1.1,1.1-2.5,1.8-4.3,1.8C165.5,410.5,163.2,408.1,163.2,404.7z M168.5,400
					c-2.6,0-3.9,2.3-4,4.2h8C172.4,402.3,171.2,400,168.5,400z"/>
				<path class="st1" d="M175.8,404.7c0-3.2,2-5.7,5.2-5.7c3.2,0,5.3,2.5,5.3,5.7c0,3.2-2,5.8-5.3,5.8
					C177.9,410.5,175.8,407.9,175.8,404.7z M185.1,404.7c0-2.4-1.4-4.7-4-4.7c-2.5,0-4,2.2-4,4.7c0,2.5,1.5,4.7,4,4.7
					C183.7,409.4,185.1,407.2,185.1,404.7z"/>
				<path class="st1" d="M190.4,408.5v5.9h-1.2v-15.1h1.2v1.7c0.8-1.1,2.2-2,3.8-2c2.9,0,4.9,2.2,4.9,5.7c0,3.5-2,5.8-4.9,5.8
					C192.6,410.5,191.3,409.7,190.4,408.5z M197.8,404.7c0-2.7-1.4-4.7-3.8-4.7c-1.5,0-3,0.9-3.6,2v5.4c0.6,1,2.1,2,3.6,2
					C196.4,409.4,197.8,407.4,197.8,404.7z"/>
				<path class="st1" d="M201.8,410.2v-15.1h1.2v15.1H201.8z"/>
				<path class="st1" d="M205.8,404.7c0-3.2,2.2-5.7,5.3-5.7c3.3,0,5.2,2.6,5.2,5.8v0.3h-9.2c0.1,2.4,1.7,4.4,4.3,4.4
					c1.4,0,2.7-0.5,3.6-1.5l0.6,0.8c-1.1,1.1-2.5,1.8-4.3,1.8C208.1,410.5,205.8,408.1,205.8,404.7z M211.1,400
					c-2.6,0-3.9,2.3-4,4.2h8C215.1,402.3,213.8,400,211.1,400z"/>
				<path class="st1" d="M237.8,410.2v-7.7c0-1.5-0.7-2.5-2.2-2.5c-1.2,0-2.5,0.9-3.1,1.9v8.3h-1.2v-7.7c0-1.5-0.6-2.5-2.2-2.5
					c-1.2,0-2.5,0.9-3.2,1.9v8.3h-1.2v-11h1.2v1.7c0.5-0.7,2-1.9,3.5-1.9c1.7,0,2.6,1,2.9,2.1c0.6-1,2.1-2.1,3.6-2.1
					c2,0,3,1.1,3,3.3v7.9H237.8z"/>
				<path class="st1" d="M241.8,404.7c0-3.2,2-5.7,5.2-5.7c3.2,0,5.3,2.5,5.3,5.7c0,3.2-2,5.8-5.3,5.8
					C243.9,410.5,241.8,407.9,241.8,404.7z M251.1,404.7c0-2.4-1.4-4.7-4-4.7c-2.5,0-4,2.2-4,4.7c0,2.5,1.5,4.7,4,4.7
					C249.6,409.4,251.1,407.2,251.1,404.7z"/>
				<path class="st1" d="M255.2,410.2v-11h1.2v1.9c0.9-1.2,2.2-2.1,3.7-2.1v1.3c-0.2,0-0.4,0-0.6,0c-1.1,0-2.6,1-3.1,2v8H255.2z"/>
				<path class="st1" d="M261.5,404.7c0-3.2,2.2-5.7,5.3-5.7c3.3,0,5.2,2.6,5.2,5.8v0.3h-9.2c0.1,2.4,1.7,4.4,4.3,4.4
					c1.4,0,2.7-0.5,3.6-1.5l0.6,0.8c-1.1,1.1-2.5,1.8-4.3,1.8C263.8,410.5,261.5,408.1,261.5,404.7z M266.8,400
					c-2.6,0-3.9,2.3-4,4.2h8C270.7,402.3,269.5,400,266.8,400z"/>
				<path class="st1" d="M281.6,408.5v5.9h-1.2v-15.1h1.2v1.7c0.8-1.1,2.2-2,3.8-2c2.9,0,4.9,2.2,4.9,5.7c0,3.5-2,5.8-4.9,5.8
					C283.9,410.5,282.5,409.7,281.6,408.5z M289,404.7c0-2.7-1.4-4.7-3.8-4.7c-1.5,0-3,0.9-3.6,2v5.4c0.6,1,2.1,2,3.6,2
					C287.7,409.4,289,407.4,289,404.7z"/>
				<path class="st1" d="M293.1,410.2v-11h1.2v1.9c0.9-1.2,2.2-2.1,3.7-2.1v1.3c-0.2,0-0.4,0-0.6,0c-1.1,0-2.6,1-3.1,2v8H293.1z"/>
				<path class="st1" d="M299.4,404.7c0-3.2,2-5.7,5.2-5.7c3.2,0,5.3,2.5,5.3,5.7c0,3.2-2,5.8-5.3,5.8
					C301.5,410.5,299.4,407.9,299.4,404.7z M308.7,404.7c0-2.4-1.4-4.7-4-4.7c-2.5,0-4,2.2-4,4.7c0,2.5,1.5,4.7,4,4.7
					C307.2,409.4,308.7,407.2,308.7,404.7z"/>
				<path class="st1" d="M320.8,410.2v-1.7c-0.8,1.1-2.2,2-3.8,2c-2.9,0-4.9-2.2-4.9-5.7c0-3.5,2-5.8,4.9-5.8c1.6,0,3,0.8,3.8,2
					v-5.9h1.2v15.1H320.8z M320.8,407.5v-5.4c-0.6-1.1-2.1-2-3.6-2c-2.4,0-3.8,2-3.8,4.7c0,2.7,1.4,4.7,3.8,4.7
					C318.8,409.4,320.2,408.5,320.8,407.5z"/>
				<path class="st1" d="M332.9,410.2v-1.6c-0.9,1-2.4,1.9-3.9,1.9c-2.2,0-3.5-1-3.5-3.5v-7.7h1.2v7.4c0,2.1,1.1,2.7,2.7,2.7
					c1.4,0,2.8-0.8,3.6-1.8v-8.4h1.2v11H332.9z"/>
				<path class="st1" d="M336.9,404.7c0-3.2,2.1-5.7,5.3-5.7c1.9,0,3,0.7,3.9,1.9l-0.8,0.7c-0.8-1.1-1.8-1.5-3-1.5
					c-2.6,0-4.1,2-4.1,4.7s1.6,4.7,4.1,4.7c1.2,0,2.2-0.5,3-1.5l0.8,0.7c-0.9,1.1-2,1.9-3.9,1.9C339,410.5,336.9,407.9,336.9,404.7z
					"/>
				<path class="st1" d="M348.7,408.1v-7.8h-1.8v-1h1.8v-3h1.2v3h2.2v1h-2.2v7.6c0,0.9,0.4,1.5,1.1,1.5c0.5,0,1-0.2,1.2-0.5l0.5,0.9
					c-0.4,0.4-1,0.7-1.9,0.7C349.4,410.5,348.7,409.6,348.7,408.1z"/>
				<path class="st1" d="M354.2,396.6c0-0.5,0.4-0.9,0.9-0.9c0.5,0,0.9,0.4,0.9,0.9c0,0.5-0.4,0.9-0.9,0.9
					C354.6,397.5,354.2,397.1,354.2,396.6z M354.5,410.2v-11h1.2v11H354.5z"/>
				<path class="st1" d="M362.1,410.2l-4.6-11h1.3l4,9.6l3.9-9.6h1.3l-4.6,11H362.1z"/>
				<path class="st1" d="M369.2,404.7c0-3.2,2.2-5.7,5.3-5.7c3.3,0,5.2,2.6,5.2,5.8v0.3h-9.2c0.1,2.4,1.7,4.4,4.3,4.4
					c1.4,0,2.7-0.5,3.6-1.5l0.6,0.8c-1.1,1.1-2.5,1.8-4.3,1.8C371.5,410.5,369.2,408.1,369.2,404.7z M374.5,400
					c-2.6,0-3.9,2.3-4,4.2h8C378.4,402.3,377.2,400,374.5,400z"/>
				<path class="st1" d="M381.9,409.4c0-0.5,0.5-1,1-1c0.5,0,1,0.5,1,1c0,0.5-0.5,1-1,1C382.4,410.4,381.9,410,381.9,409.4z"/>
				<path class="st1" d="M397.2,410.2v-6.5l-6-8.7h1.6l5.1,7.4l5.1-7.4h1.6l-6,8.7v6.5H397.2z"/>
				<path class="st1" d="M402.9,404.7c0-3.2,2-5.7,5.2-5.7c3.2,0,5.3,2.5,5.3,5.7c0,3.2-2,5.8-5.3,5.8
					C405,410.5,402.9,407.9,402.9,404.7z M412.2,404.7c0-2.4-1.4-4.7-4-4.7c-2.5,0-4,2.2-4,4.7c0,2.5,1.5,4.7,4,4.7
					C410.7,409.4,412.2,407.2,412.2,404.7z"/>
				<path class="st1" d="M423.7,410.2v-1.6c-0.9,1-2.4,1.9-3.9,1.9c-2.2,0-3.5-1-3.5-3.5v-7.7h1.2v7.4c0,2.1,1.1,2.7,2.7,2.7
					c1.4,0,2.8-0.8,3.6-1.8v-8.4h1.2v11H423.7z"/>
				<path class="st1" d="M428.3,410.2v-11h1.2v1.9c0.9-1.2,2.2-2.1,3.7-2.1v1.3c-0.2,0-0.4,0-0.6,0c-1.1,0-2.6,1-3.1,2v8H428.3z"/>
				<path class="st1" d="M442.1,408.5v5.9h-1.2v-15.1h1.2v1.7c0.8-1.1,2.2-2,3.8-2c2.9,0,4.9,2.2,4.9,5.7c0,3.5-2,5.8-4.9,5.8
					C444.4,410.5,443,409.7,442.1,408.5z M449.5,404.7c0-2.7-1.4-4.7-3.8-4.7c-1.5,0-3,0.9-3.6,2v5.4c0.6,1,2.1,2,3.6,2
					C448.1,409.4,449.5,407.4,449.5,404.7z"/>
				<path class="st1" d="M453.5,410.2v-11h1.2v1.9c0.9-1.2,2.2-2.1,3.7-2.1v1.3c-0.2,0-0.4,0-0.6,0c-1.1,0-2.6,1-3.1,2v8H453.5z"/>
				<path class="st1" d="M459.9,404.7c0-3.2,2-5.7,5.2-5.7c3.2,0,5.3,2.5,5.3,5.7c0,3.2-2,5.8-5.3,5.8
					C461.9,410.5,459.9,407.9,459.9,404.7z M469.2,404.7c0-2.4-1.4-4.7-4-4.7c-2.5,0-4,2.2-4,4.7c0,2.5,1.5,4.7,4,4.7
					C467.7,409.4,469.2,407.2,469.2,404.7z"/>
				<path class="st1" d="M472.6,404.7c0-3.2,2.1-5.7,5.3-5.7c1.9,0,3,0.7,3.9,1.9l-0.8,0.7c-0.8-1.1-1.8-1.5-3-1.5
					c-2.6,0-4.1,2-4.1,4.7s1.6,4.7,4.1,4.7c1.2,0,2.2-0.5,3-1.5l0.8,0.7c-0.9,1.1-2,1.9-3.9,1.9
					C474.7,410.5,472.6,407.9,472.6,404.7z"/>
				<path class="st1" d="M483.6,404.7c0-3.2,2.2-5.7,5.3-5.7c3.3,0,5.2,2.6,5.2,5.8v0.3h-9.2c0.1,2.4,1.7,4.4,4.3,4.4
					c1.4,0,2.7-0.5,3.6-1.5l0.6,0.8c-1.1,1.1-2.5,1.8-4.3,1.8C485.9,410.5,483.6,408.1,483.6,404.7z M488.9,400
					c-2.6,0-3.9,2.3-4,4.2h8C492.8,402.3,491.6,400,488.9,400z"/>
				<path class="st1" d="M495.9,408.7l0.7-0.9c0.7,0.9,2,1.6,3.5,1.6c1.8,0,2.9-1,2.9-2.2c0-3-6.9-1.3-6.9-5.2c0-1.7,1.4-3,3.9-3
					c1.9,0,3.1,0.7,3.9,1.6l-0.7,0.8c-0.6-0.9-1.8-1.5-3.3-1.5c-1.7,0-2.7,0.9-2.7,2c0,2.7,6.9,1.1,6.9,5.3c0,1.8-1.4,3.2-4.1,3.2
					C498.4,410.5,497,410,495.9,408.7z"/>
				<path class="st1" d="M506.1,408.7l0.7-0.9c0.7,0.9,2,1.6,3.5,1.6c1.8,0,2.9-1,2.9-2.2c0-3-6.9-1.3-6.9-5.2c0-1.7,1.4-3,3.9-3
					c1.9,0,3.1,0.7,3.9,1.6l-0.7,0.8c-0.6-0.9-1.8-1.5-3.3-1.5c-1.7,0-2.7,0.9-2.7,2c0,2.7,6.9,1.1,6.9,5.3c0,1.8-1.4,3.2-4.1,3.2
					C508.5,410.5,507.2,410,506.1,408.7z"/>
				<path class="st1" d="M516.6,404.7c0-3.2,2.2-5.7,5.3-5.7c3.3,0,5.2,2.6,5.2,5.8v0.3h-9.2c0.1,2.4,1.7,4.4,4.3,4.4
					c1.4,0,2.7-0.5,3.6-1.5l0.6,0.8c-1.1,1.1-2.5,1.8-4.3,1.8C518.9,410.5,516.6,408.1,516.6,404.7z M521.9,400
					c-2.6,0-3.9,2.3-4,4.2h8C525.8,402.3,524.6,400,521.9,400z"/>
				<path class="st1" d="M528.9,408.7l0.7-0.9c0.7,0.9,2,1.6,3.5,1.6c1.8,0,2.9-1,2.9-2.2c0-3-6.9-1.3-6.9-5.2c0-1.7,1.4-3,3.9-3
					c1.9,0,3.1,0.7,3.9,1.6l-0.7,0.8c-0.6-0.9-1.8-1.5-3.3-1.5c-1.7,0-2.7,0.9-2.7,2c0,2.7,6.9,1.1,6.9,5.3c0,1.8-1.4,3.2-4.1,3.2
					C531.4,410.5,530,410,528.9,408.7z"/>
				<path class="st1" d="M558.8,410.2v-7.7c0-1.5-0.7-2.5-2.2-2.5c-1.2,0-2.5,0.9-3.1,1.9v8.3h-1.2v-7.7c0-1.5-0.6-2.5-2.2-2.5
					c-1.2,0-2.5,0.9-3.2,1.9v8.3h-1.2v-11h1.2v1.7c0.5-0.7,2-1.9,3.5-1.9c1.7,0,2.6,1,2.9,2.1c0.6-1,2.1-2.1,3.6-2.1
					c2,0,3,1.1,3,3.3v7.9H558.8z"/>
				<path class="st1" d="M562.8,404.7c0-3.2,2-5.7,5.2-5.7c3.2,0,5.3,2.5,5.3,5.7c0,3.2-2,5.8-5.3,5.8
					C564.8,410.5,562.8,407.9,562.8,404.7z M572,404.7c0-2.4-1.4-4.7-4-4.7c-2.5,0-4,2.2-4,4.7c0,2.5,1.5,4.7,4,4.7
					C570.6,409.4,572,407.2,572,404.7z"/>
				<path class="st1" d="M576.1,410.2v-11h1.2v1.9c0.9-1.2,2.2-2.1,3.7-2.1v1.3c-0.2,0-0.4,0-0.6,0c-1.1,0-2.6,1-3.1,2v8H576.1z"/>
				<path class="st1" d="M582.5,404.7c0-3.2,2.2-5.7,5.3-5.7c3.3,0,5.2,2.6,5.2,5.8v0.3h-9.2c0.1,2.4,1.7,4.4,4.3,4.4
					c1.4,0,2.7-0.5,3.6-1.5l0.6,0.8c-1.1,1.1-2.5,1.8-4.3,1.8C584.8,410.5,582.5,408.1,582.5,404.7z M587.7,400
					c-2.6,0-3.9,2.3-4,4.2h8C591.7,402.3,590.5,400,587.7,400z"/>
				<path class="st1" d="M602.6,408.5v5.9h-1.2v-15.1h1.2v1.7c0.8-1.1,2.2-2,3.8-2c2.9,0,4.9,2.2,4.9,5.7c0,3.5-2,5.8-4.9,5.8
					C604.8,410.5,603.4,409.7,602.6,408.5z M610,404.7c0-2.7-1.4-4.7-3.8-4.7c-1.5,0-3,0.9-3.6,2v5.4c0.6,1,2.1,2,3.6,2
					C608.6,409.4,610,407.4,610,404.7z"/>
				<path class="st1" d="M614,410.2v-11h1.2v1.9c0.9-1.2,2.2-2.1,3.7-2.1v1.3c-0.2,0-0.4,0-0.6,0c-1.1,0-2.6,1-3.1,2v8H614z"/>
				<path class="st1" d="M620.4,404.7c0-3.2,2-5.7,5.2-5.7c3.2,0,5.3,2.5,5.3,5.7c0,3.2-2,5.8-5.3,5.8
					C622.4,410.5,620.4,407.9,620.4,404.7z M629.6,404.7c0-2.4-1.4-4.7-4-4.7c-2.5,0-4,2.2-4,4.7c0,2.5,1.5,4.7,4,4.7
					C628.2,409.4,629.6,407.2,629.6,404.7z"/>
				<path class="st1" d="M634.1,410.2v-9.9h-1.8v-1h1.8v-1c0-2.2,1.2-3.4,3-3.4c0.5,0,1,0.1,1.5,0.3l-0.4,1c-0.3-0.2-0.6-0.2-1-0.2
					c-1.2,0-1.9,0.9-1.9,2.3v1h2.2v1h-2.2v9.9H634.1z M639.4,396.6c0-0.5,0.4-0.9,0.9-0.9c0.5,0,0.9,0.4,0.9,0.9
					c0,0.5-0.4,0.9-0.9,0.9C639.8,397.5,639.4,397.1,639.4,396.6z M639.7,410.2v-11h1.2v11H639.7z"/>
				<path class="st1" d="M644.6,408.1v-7.8h-1.8v-1h1.8v-3h1.2v3h2.2v1h-2.2v7.6c0,0.9,0.4,1.5,1.1,1.5c0.5,0,1-0.2,1.2-0.5l0.5,0.9
					c-0.4,0.4-1,0.7-1.9,0.7C645.3,410.5,644.6,409.6,644.6,408.1z"/>
				<path class="st1" d="M657.3,410.2v-1.3c-1,1.1-2.2,1.6-3.7,1.6c-1.9,0-3.8-1.3-3.8-3.7c0-2.4,1.9-3.6,3.8-3.6
					c1.5,0,2.8,0.5,3.7,1.6v-2.2c0-1.6-1.3-2.5-2.9-2.5c-1.4,0-2.5,0.5-3.5,1.6l-0.7-0.8c1.1-1.2,2.4-1.8,4.2-1.8c2.2,0,4,1.1,4,3.5
					v7.7H657.3z M657.3,408.1v-2.4c-0.8-1-2-1.5-3.3-1.5c-1.8,0-3,1.2-3,2.7c0,1.5,1.2,2.7,3,2.7
					C655.3,409.6,656.6,409.1,657.3,408.1z"/>
				<path class="st1" d="M662,410.2v-15.1h1.2v5.9c0.9-1.2,2.3-2,3.8-2c2.9,0,4.9,2.3,4.9,5.8c0,3.5-2,5.7-4.9,5.7
					c-1.6,0-3-0.9-3.8-2v1.7H662z M666.7,409.4c2.5,0,3.8-2,3.8-4.7c0-2.7-1.4-4.7-3.8-4.7c-1.5,0-3,1-3.6,2v5.4
					C663.8,408.5,665.2,409.4,666.7,409.4z"/>
				<path class="st1" d="M674.7,410.2v-15.1h1.2v15.1H674.7z"/>
				<path class="st1" d="M678.7,404.7c0-3.2,2.2-5.7,5.3-5.7c3.3,0,5.2,2.6,5.2,5.8v0.3H680c0.1,2.4,1.7,4.4,4.3,4.4
					c1.4,0,2.7-0.5,3.6-1.5l0.6,0.8c-1.1,1.1-2.5,1.8-4.3,1.8C681,410.5,678.7,408.1,678.7,404.7z M683.9,400c-2.6,0-3.9,2.3-4,4.2
					h8C687.9,402.3,686.7,400,683.9,400z"/>
				<path class="st1" d="M704.6,410.2v-1.3c-1,1.1-2.2,1.6-3.7,1.6c-1.9,0-3.8-1.3-3.8-3.7c0-2.4,1.9-3.6,3.8-3.6
					c1.5,0,2.8,0.5,3.7,1.6v-2.2c0-1.6-1.3-2.5-2.9-2.5c-1.4,0-2.5,0.5-3.5,1.6l-0.7-0.8c1.1-1.2,2.4-1.8,4.2-1.8c2.2,0,4,1.1,4,3.5
					v7.7H704.6z M704.6,408.1v-2.4c-0.8-1-2-1.5-3.3-1.5c-1.8,0-3,1.2-3,2.7c0,1.5,1.2,2.7,3,2.7
					C702.6,409.6,703.8,409.1,704.6,408.1z"/>
				<path class="st1" d="M716.6,410.2v-7.4c0-2.1-1.1-2.7-2.7-2.7c-1.4,0-2.9,0.9-3.6,1.9v8.3h-1.2v-11h1.2v1.7
					c0.8-1,2.4-1.9,3.9-1.9c2.2,0,3.5,1.1,3.5,3.6v7.7H716.6z"/>
				<path class="st1" d="M729.3,410.2v-1.7c-0.8,1.1-2.2,2-3.8,2c-2.9,0-4.9-2.2-4.9-5.7c0-3.5,2-5.8,4.9-5.8c1.6,0,3,0.8,3.8,2
					v-5.9h1.2v15.1H729.3z M729.3,407.5v-5.4c-0.6-1.1-2.1-2-3.6-2c-2.4,0-3.8,2-3.8,4.7c0,2.7,1.4,4.7,3.8,4.7
					C727.2,409.4,728.7,408.5,729.3,407.5z"/>
				<path class="st1" d="M739.1,413.4c0.2,0.1,0.7,0.2,1,0.2c0.7,0,1.2-0.3,1.7-1.3l0.9-2l-4.7-11.1h1.3l4,9.6l3.9-9.6h1.3
					l-5.7,13.4c-0.6,1.4-1.5,2-2.8,2c-0.4,0-0.9-0.1-1.2-0.2L739.1,413.4z"/>
				<path class="st1" d="M749.7,404.7c0-3.2,2-5.7,5.2-5.7c3.2,0,5.3,2.5,5.3,5.7c0,3.2-2,5.8-5.3,5.8
					C751.7,410.5,749.7,407.9,749.7,404.7z M758.9,404.7c0-2.4-1.4-4.7-4-4.7c-2.5,0-4,2.2-4,4.7c0,2.5,1.5,4.7,4,4.7
					C757.5,409.4,758.9,407.2,758.9,404.7z"/>
				<path class="st1" d="M770.4,410.2v-1.6c-0.9,1-2.4,1.9-3.9,1.9c-2.2,0-3.5-1-3.5-3.5v-7.7h1.2v7.4c0,2.1,1.1,2.7,2.7,2.7
					c1.4,0,2.8-0.8,3.6-1.8v-8.4h1.2v11H770.4z"/>
				<path class="st1" d="M775.1,410.2v-11h1.2v1.9c0.9-1.2,2.2-2.1,3.7-2.1v1.3c-0.2,0-0.4,0-0.6,0c-1.1,0-2.6,1-3.1,2v8H775.1z"/>
				<path class="st1" d="M786.7,408.7l0.7-0.9c0.7,0.9,2,1.6,3.5,1.6c1.8,0,2.9-1,2.9-2.2c0-3-6.9-1.3-6.9-5.2c0-1.7,1.4-3,3.9-3
					c1.9,0,3.1,0.7,3.9,1.6l-0.7,0.8c-0.6-0.9-1.8-1.5-3.3-1.5c-1.7,0-2.7,0.9-2.7,2c0,2.7,6.9,1.1,6.9,5.3c0,1.8-1.4,3.2-4.1,3.2
					C789.2,410.5,787.8,410,786.7,408.7z"/>
				<path class="st1" d="M797.3,413.4c0.2,0.1,0.7,0.2,1,0.2c0.7,0,1.2-0.3,1.7-1.3l0.9-2l-4.7-11.1h1.3l4,9.6l3.9-9.6h1.3
					l-5.7,13.4c-0.6,1.4-1.5,2-2.8,2c-0.4,0-0.9-0.1-1.2-0.2L797.3,413.4z"/>
				<path class="st1" d="M807.6,408.7l0.7-0.9c0.7,0.9,2,1.6,3.5,1.6c1.8,0,2.9-1,2.9-2.2c0-3-6.9-1.3-6.9-5.2c0-1.7,1.4-3,3.9-3
					c1.9,0,3.1,0.7,3.9,1.6l-0.7,0.8c-0.6-0.9-1.8-1.5-3.3-1.5c-1.7,0-2.7,0.9-2.7,2c0,2.7,6.9,1.1,6.9,5.3c0,1.8-1.4,3.2-4.1,3.2
					C810,410.5,808.7,410,807.6,408.7z"/>
				<path class="st1" d="M819,408.1v-7.8h-1.8v-1h1.8v-3h1.2v3h2.2v1h-2.2v7.6c0,0.9,0.4,1.5,1.1,1.5c0.5,0,1-0.2,1.2-0.5l0.5,0.9
					c-0.4,0.4-1,0.7-1.9,0.7C819.7,410.5,819,409.6,819,408.1z"/>
				<path class="st1" d="M824.1,404.7c0-3.2,2.2-5.7,5.3-5.7c3.3,0,5.2,2.6,5.2,5.8v0.3h-9.2c0.1,2.4,1.7,4.4,4.3,4.4
					c1.4,0,2.7-0.5,3.6-1.5l0.6,0.8c-1.1,1.1-2.5,1.8-4.3,1.8C826.4,410.5,824.1,408.1,824.1,404.7z M829.4,400
					c-2.6,0-3.9,2.3-4,4.2h8C833.4,402.3,832.1,400,829.4,400z"/>
				<path class="st1" d="M850.4,410.2v-7.7c0-1.5-0.7-2.5-2.2-2.5c-1.2,0-2.5,0.9-3.1,1.9v8.3h-1.2v-7.7c0-1.5-0.6-2.5-2.2-2.5
					c-1.2,0-2.5,0.9-3.2,1.9v8.3h-1.2v-11h1.2v1.7c0.5-0.7,2-1.9,3.5-1.9c1.7,0,2.6,1,2.9,2.1c0.6-1,2.1-2.1,3.6-2.1
					c2,0,3,1.1,3,3.3v7.9H850.4z"/>
				<path class="st1" d="M854.1,408.7l0.7-0.9c0.7,0.9,2,1.6,3.5,1.6c1.8,0,2.9-1,2.9-2.2c0-3-6.9-1.3-6.9-5.2c0-1.7,1.4-3,3.9-3
					c1.9,0,3.1,0.7,3.9,1.6l-0.7,0.8c-0.6-0.9-1.8-1.5-3.3-1.5c-1.7,0-2.7,0.9-2.7,2c0,2.7,6.9,1.1,6.9,5.3c0,1.8-1.4,3.2-4.1,3.2
					C856.6,410.5,855.2,410,854.1,408.7z"/>
				<path class="st1" d="M884,410.2v-7.7c0-1.5-0.7-2.5-2.2-2.5c-1.2,0-2.5,0.9-3.1,1.9v8.3h-1.2v-7.7c0-1.5-0.6-2.5-2.2-2.5
					c-1.2,0-2.5,0.9-3.2,1.9v8.3h-1.2v-11h1.2v1.7c0.5-0.7,2-1.9,3.5-1.9c1.7,0,2.6,1,2.9,2.1c0.6-1,2.1-2.1,3.6-2.1
					c2,0,3,1.1,3,3.3v7.9H884z"/>
				<path class="st1" d="M888,404.7c0-3.2,2-5.7,5.2-5.7c3.2,0,5.3,2.5,5.3,5.7c0,3.2-2,5.8-5.3,5.8C890,410.5,888,407.9,888,404.7z
					 M897.2,404.7c0-2.4-1.4-4.7-4-4.7c-2.5,0-4,2.2-4,4.7c0,2.5,1.5,4.7,4,4.7C895.8,409.4,897.2,407.2,897.2,404.7z"/>
				<path class="st1" d="M901.3,410.2v-11h1.2v1.9c0.9-1.2,2.2-2.1,3.7-2.1v1.3c-0.2,0-0.4,0-0.6,0c-1.1,0-2.6,1-3.1,2v8H901.3z"/>
				<path class="st1" d="M907.7,404.7c0-3.2,2.2-5.7,5.3-5.7c3.3,0,5.2,2.6,5.2,5.8v0.3h-9.2c0.1,2.4,1.7,4.4,4.3,4.4
					c1.4,0,2.7-0.5,3.6-1.5l0.6,0.8c-1.1,1.1-2.5,1.8-4.3,1.8C909.9,410.5,907.7,408.1,907.7,404.7z M912.9,400
					c-2.6,0-3.9,2.3-4,4.2h8C916.9,402.3,915.7,400,912.9,400z"/>
				<path class="st1" d="M927.8,408.5v5.9h-1.2v-15.1h1.2v1.7c0.8-1.1,2.2-2,3.8-2c2.9,0,4.9,2.2,4.9,5.7c0,3.5-2,5.8-4.9,5.8
					C930,410.5,928.6,409.7,927.8,408.5z M935.2,404.7c0-2.7-1.4-4.7-3.8-4.7c-1.5,0-3,0.9-3.6,2v5.4c0.6,1,2.1,2,3.6,2
					C933.8,409.4,935.2,407.4,935.2,404.7z"/>
				<path class="st1" d="M938.6,404.7c0-3.2,2-5.7,5.2-5.7c3.2,0,5.3,2.5,5.3,5.7c0,3.2-2,5.8-5.3,5.8
					C940.6,410.5,938.6,407.9,938.6,404.7z M947.9,404.7c0-2.4-1.4-4.7-4-4.7c-2.5,0-4,2.2-4,4.7c0,2.5,1.5,4.7,4,4.7
					C946.4,409.4,947.9,407.2,947.9,404.7z"/>
				<path class="st1" d="M961.3,410.2l-3.1-9.4l-3.1,9.4h-1.1l-3.6-11h1.3l2.9,9.3l3.1-9.3h1l3.1,9.3l2.9-9.3h1.3l-3.6,11H961.3z"/>
				<path class="st1" d="M967.4,404.7c0-3.2,2.2-5.7,5.3-5.7c3.3,0,5.2,2.6,5.2,5.8v0.3h-9.2c0.1,2.4,1.7,4.4,4.3,4.4
					c1.4,0,2.7-0.5,3.6-1.5l0.6,0.8c-1.1,1.1-2.5,1.8-4.3,1.8C969.7,410.5,967.4,408.1,967.4,404.7z M972.7,400
					c-2.6,0-3.9,2.3-4,4.2h8C976.6,402.3,975.4,400,972.7,400z"/>
				<path class="st1" d="M980.7,410.2v-11h1.2v1.9c0.9-1.2,2.2-2.1,3.7-2.1v1.3c-0.2,0-0.4,0-0.6,0c-1.1,0-2.6,1-3.1,2v8H980.7z"/>
				<path class="st1" d="M988,410.2v-9.9h-1.8v-1h1.8v-1c0-2.1,1.1-3.4,3-3.4c0.8,0,1.4,0.2,2.1,0.8l-0.6,0.9
					c-0.4-0.3-0.8-0.6-1.4-0.6c-1.2,0-1.9,0.9-1.9,2.3v1h2.2v1h-2.2v9.9H988z"/>
				<path class="st1" d="M1000.8,410.2v-1.6c-0.9,1-2.4,1.9-3.9,1.9c-2.2,0-3.5-1-3.5-3.5v-7.7h1.2v7.4c0,2.1,1.1,2.7,2.7,2.7
					c1.4,0,2.8-0.8,3.6-1.8v-8.4h1.2v11H1000.8z"/>
				<path class="st1" d="M1005.5,410.2v-15.1h1.2v15.1H1005.5z"/>
				<path class="st1" d="M1009.7,409.4c0-0.5,0.5-1,1-1c0.5,0,1,0.5,1,1c0,0.5-0.5,1-1,1C1010.2,410.4,1009.7,410,1009.7,409.4z"/>
				<path class="st1" d="M150.7,455.2v-15.1h3.2v12.3h6.4v2.8H150.7z"/>
				<path class="st1" d="M161.3,449.7c0-3.2,2.4-5.7,5.7-5.7c3.3,0,5.5,2.5,5.5,6v0.7h-8.1c0.2,1.3,1.3,2.4,3.2,2.4
					c0.9,0,2.2-0.4,2.9-1.1l1.3,1.9c-1.1,1-2.8,1.5-4.5,1.5C163.8,455.5,161.3,453.3,161.3,449.7z M167,446.4
					c-1.8,0-2.6,1.2-2.7,2.3h5.4C169.6,447.6,168.9,446.4,167,446.4z"/>
				<path class="st1" d="M174.9,452.5v-5.7h-1.8v-2.5h1.8v-3h2.9v3h2.2v2.5h-2.2v4.9c0,0.7,0.4,1.2,1,1.2c0.4,0,0.8-0.2,1-0.3
					l0.6,2.2c-0.4,0.4-1.2,0.7-2.4,0.7C176,455.5,174.9,454.5,174.9,452.5z"/>
				<path class="st1" d="M182.9,446.4l-1.2-1c0.7-0.4,1.6-1.3,1.7-2.2c-0.1,0-0.2,0.1-0.4,0.1c-0.9,0-1.5-0.7-1.5-1.6
					c0-1,0.8-1.8,1.8-1.8c1.1,0,2,0.8,2,2.3C185.2,443.9,184.3,445.4,182.9,446.4z"/>
				<path class="st1" d="M185.7,453.8l1.2-2.1c0.8,0.8,2.4,1.5,3.8,1.5c1.2,0,1.8-0.5,1.8-1.2c0-1.8-6.5-0.3-6.5-4.6
					c0-1.8,1.6-3.5,4.5-3.5c1.8,0,3.3,0.6,4.4,1.5l-1.2,2c-0.7-0.7-1.9-1.3-3.2-1.3c-1,0-1.7,0.5-1.7,1.1c0,1.6,6.5,0.2,6.5,4.7
					c0,2-1.7,3.5-4.8,3.5C188.7,455.5,186.8,454.9,185.7,453.8z"/>
				<path class="st1" d="M209.4,455.2v-1.2c-0.7,0.9-2,1.4-3.5,1.4c-1.7,0-3.8-1.2-3.8-3.6c0-2.6,2-3.5,3.8-3.5
					c1.5,0,2.7,0.5,3.5,1.3v-1.4c0-1.1-1-1.8-2.4-1.8c-1.2,0-2.2,0.5-3.2,1.3l-1.1-2c1.3-1.2,3.1-1.7,4.8-1.7c2.5,0,4.8,1,4.8,4.2
					v7.1H209.4z M209.4,452.6v-1.4c-0.5-0.6-1.4-1-2.3-1c-1.1,0-2.1,0.6-2.1,1.7s0.9,1.6,2.1,1.6C208,453.5,208.9,453.2,209.4,452.6
					z"/>
				<path class="st1" d="M222.5,455.2v-1.4c-0.9,1.1-2,1.7-3.4,1.7c-2.7,0-4.9-2.1-4.9-5.8c0-3.6,2.1-5.7,4.9-5.7
					c1.3,0,2.5,0.5,3.4,1.7v-5.6h2.9v15.1H222.5z M222.5,451.7v-3.9c-0.5-0.7-1.5-1.2-2.5-1.2c-1.7,0-2.8,1.3-2.8,3.2
					c0,1.9,1.1,3.2,2.8,3.2C220.9,452.9,222,452.4,222.5,451.7z"/>
				<path class="st1" d="M230.8,455.2l-4.4-11h3.1l2.9,7.6l2.9-7.6h3.1l-4.4,11H230.8z"/>
				<path class="st1" d="M246,455.2v-1.2c-0.7,0.9-2,1.4-3.5,1.4c-1.7,0-3.8-1.2-3.8-3.6c0-2.6,2-3.5,3.8-3.5c1.5,0,2.7,0.5,3.5,1.3
					v-1.4c0-1.1-1-1.8-2.4-1.8c-1.2,0-2.2,0.5-3.2,1.3l-1.1-2c1.3-1.2,3.1-1.7,4.8-1.7c2.5,0,4.8,1,4.8,4.2v7.1H246z M246,452.6
					v-1.4c-0.5-0.6-1.4-1-2.3-1c-1.1,0-2.1,0.6-2.1,1.7s0.9,1.6,2.1,1.6C244.6,453.5,245.5,453.2,246,452.6z"/>
				<path class="st1" d="M258.9,455.2v-6.6c0-1.5-0.8-2-2-2c-1.1,0-2,0.6-2.5,1.3v7.4h-2.9v-11h2.9v1.4c0.7-0.8,2.1-1.7,3.8-1.7
					c2.4,0,3.6,1.4,3.6,3.5v7.7H258.9z"/>
				<path class="st1" d="M263.7,449.7c0-3.4,2.5-5.7,5.8-5.7c2.2,0,3.6,1,4.3,2l-1.9,1.8c-0.5-0.8-1.3-1.2-2.3-1.2
					c-1.7,0-3,1.3-3,3.2c0,1.9,1.2,3.2,3,3.2c1,0,1.8-0.5,2.3-1.2l1.9,1.8c-0.7,1-2.1,2-4.3,2C266.2,455.5,263.7,453.1,263.7,449.7z
					"/>
				<path class="st1" d="M274.8,449.7c0-3.2,2.4-5.7,5.7-5.7c3.3,0,5.5,2.5,5.5,6v0.7h-8.1c0.2,1.3,1.3,2.4,3.2,2.4
					c0.9,0,2.2-0.4,2.9-1.1l1.3,1.9c-1.1,1-2.8,1.5-4.5,1.5C277.3,455.5,274.8,453.3,274.8,449.7z M280.5,446.4
					c-1.8,0-2.6,1.2-2.7,2.3h5.4C283.1,447.6,282.4,446.4,280.5,446.4z"/>
				<path class="st1" d="M292.7,449.7c0-3.2,2.4-5.7,5.7-5.7c3.3,0,5.5,2.5,5.5,6v0.7h-8.1c0.2,1.3,1.3,2.4,3.2,2.4
					c0.9,0,2.2-0.4,2.9-1.1l1.3,1.9c-1.1,1-2.8,1.5-4.5,1.5C295.3,455.5,292.7,453.3,292.7,449.7z M298.4,446.4
					c-1.8,0-2.6,1.2-2.7,2.3h5.4C301,447.6,300.3,446.4,298.4,446.4z"/>
				<path class="st1" d="M308.6,455.2l-4.4-11h3.1l2.9,7.6l2.9-7.6h3.1l-4.4,11H308.6z"/>
				<path class="st1" d="M316.5,449.7c0-3.2,2.4-5.7,5.7-5.7c3.3,0,5.5,2.5,5.5,6v0.7h-8.1c0.2,1.3,1.3,2.4,3.2,2.4
					c0.9,0,2.2-0.4,2.9-1.1l1.3,1.9c-1.1,1-2.8,1.5-4.5,1.5C319,455.5,316.5,453.3,316.5,449.7z M322.2,446.4
					c-1.8,0-2.6,1.2-2.7,2.3h5.4C324.8,447.6,324.1,446.4,322.2,446.4z"/>
				<path class="st1" d="M329.5,455.2v-11h2.9v1.5c0.8-1,2.1-1.7,3.5-1.7v2.8c-0.2,0-0.5-0.1-0.8-0.1c-1,0-2.2,0.5-2.7,1.2v7.2
					H329.5z"/>
				<path class="st1" d="M337.5,456.9c0.2,0.1,0.6,0.2,0.9,0.2c0.7,0,1.2-0.2,1.5-0.8l0.4-1l-4.4-11.1h3.1l2.9,7.6l2.9-7.6h3.1
					l-5.2,12.8c-0.8,2.1-2.3,2.6-4.2,2.7c-0.3,0-1.1-0.1-1.4-0.2L337.5,456.9z"/>
				<path class="st1" d="M361,455.2v-1.2c-0.7,0.9-2,1.4-3.5,1.4c-1.7,0-3.8-1.2-3.8-3.6c0-2.6,2-3.5,3.8-3.5c1.5,0,2.7,0.5,3.5,1.3
					v-1.4c0-1.1-1-1.8-2.4-1.8c-1.2,0-2.2,0.5-3.2,1.3l-1.1-2c1.3-1.2,3.1-1.7,4.8-1.7c2.5,0,4.8,1,4.8,4.2v7.1H361z M361,452.6
					v-1.4c-0.5-0.6-1.4-1-2.3-1c-1.1,0-2.1,0.6-2.1,1.7s0.9,1.6,2.1,1.6C359.7,453.5,360.6,453.2,361,452.6z"/>
				<path class="st1" d="M365.6,453.8l1.2-2.1c0.8,0.8,2.4,1.5,3.8,1.5c1.2,0,1.8-0.5,1.8-1.2c0-1.8-6.5-0.3-6.5-4.6
					c0-1.8,1.6-3.5,4.5-3.5c1.8,0,3.3,0.6,4.4,1.5l-1.2,2c-0.7-0.7-1.9-1.3-3.2-1.3c-1,0-1.7,0.5-1.7,1.1c0,1.6,6.5,0.2,6.5,4.7
					c0,2-1.7,3.5-4.8,3.5C368.6,455.5,366.8,454.9,365.6,453.8z"/>
				<path class="st1" d="M380,453.8v5.6h-2.9v-15.1h2.9v1.4c0.8-1.1,2-1.7,3.4-1.7c2.8,0,4.9,2.1,4.9,5.7c0,3.7-2,5.8-4.9,5.8
					C382.1,455.5,380.9,455,380,453.8z M385.3,449.7c0-1.9-1.1-3.2-2.8-3.2c-0.9,0-2,0.5-2.5,1.2v3.9c0.5,0.7,1.5,1.3,2.5,1.3
					C384.2,452.9,385.3,451.6,385.3,449.7z"/>
				<path class="st1" d="M389.5,449.7c0-3.2,2.4-5.7,5.7-5.7c3.3,0,5.5,2.5,5.5,6v0.7h-8.1c0.2,1.3,1.3,2.4,3.2,2.4
					c0.9,0,2.2-0.4,2.9-1.1l1.3,1.9c-1.1,1-2.8,1.5-4.5,1.5C392,455.5,389.5,453.3,389.5,449.7z M395.1,446.4
					c-1.8,0-2.6,1.2-2.7,2.3h5.4C397.8,447.6,397,446.4,395.1,446.4z"/>
				<path class="st1" d="M401.8,449.7c0-3.4,2.5-5.7,5.8-5.7c2.2,0,3.6,1,4.3,2l-1.9,1.8c-0.5-0.8-1.3-1.2-2.3-1.2
					c-1.7,0-3,1.3-3,3.2c0,1.9,1.2,3.2,3,3.2c1,0,1.8-0.5,2.3-1.2l1.9,1.8c-0.7,1-2.1,2-4.3,2C404.2,455.5,401.8,453.1,401.8,449.7z
					"/>
				<path class="st1" d="M414.2,452.5v-5.7h-1.8v-2.5h1.8v-3h2.9v3h2.2v2.5h-2.2v4.9c0,0.7,0.4,1.2,1,1.2c0.4,0,0.8-0.2,1-0.3
					l0.6,2.2c-0.4,0.4-1.2,0.7-2.4,0.7C415.2,455.5,414.2,454.5,414.2,452.5z"/>
				<path class="st1" d="M425.9,449.7c0-3.1,2.2-5.7,5.8-5.7c3.6,0,5.8,2.6,5.8,5.7c0,3.1-2.2,5.8-5.8,5.8
					C428.1,455.5,425.9,452.8,425.9,449.7z M434.5,449.7c0-1.7-1-3.2-2.8-3.2c-1.8,0-2.8,1.5-2.8,3.2c0,1.7,1,3.2,2.8,3.2
					C433.5,452.9,434.5,451.5,434.5,449.7z"/>
				<path class="st1" d="M440.1,455.2v-8.4h-1.8v-2.5h1.8v-0.5c0-2.5,1.5-3.9,3.7-3.9c1.1,0,2.2,0.3,2.9,1l-1.1,1.7
					c-0.3-0.3-0.7-0.4-1.2-0.4c-0.8,0-1.4,0.5-1.4,1.6v0.5h2.2v2.5H443v8.4H440.1z"/>
				<path class="st1" d="M452.3,456.9c0.2,0.1,0.6,0.2,0.9,0.2c0.7,0,1.2-0.2,1.5-0.8l0.4-1l-4.4-11.1h3.1l2.9,7.6l2.9-7.6h3.1
					l-5.2,12.8c-0.8,2.1-2.3,2.6-4.2,2.7c-0.3,0-1.1-0.1-1.4-0.2L452.3,456.9z"/>
				<path class="st1" d="M463,449.7c0-3.1,2.2-5.7,5.8-5.7c3.6,0,5.8,2.6,5.8,5.7c0,3.1-2.2,5.8-5.8,5.8
					C465.1,455.5,463,452.8,463,449.7z M471.6,449.7c0-1.7-1-3.2-2.8-3.2c-1.8,0-2.8,1.5-2.8,3.2c0,1.7,1,3.2,2.8,3.2
					C470.6,452.9,471.6,451.5,471.6,449.7z"/>
				<path class="st1" d="M483.9,455.2v-1.4c-0.7,0.8-2.1,1.7-3.9,1.7c-2.4,0-3.5-1.3-3.5-3.4v-7.8h2.9v6.7c0,1.5,0.8,2,2,2
					c1.1,0,2-0.6,2.5-1.2v-7.4h2.9v11H483.9z"/>
				<path class="st1" d="M489.4,455.2v-11h2.9v1.5c0.8-1,2.1-1.7,3.5-1.7v2.8c-0.2,0-0.5-0.1-0.8-0.1c-1,0-2.2,0.5-2.7,1.2v7.2
					H489.4z"/>
				<path class="st1" d="M502.9,455.2v-15.1h2.9v5.6c0.9-1.1,2.1-1.7,3.4-1.7c2.8,0,4.9,2.2,4.9,5.7c0,3.7-2.1,5.8-4.9,5.8
					c-1.3,0-2.5-0.6-3.4-1.7v1.4H502.9z M508.3,452.9c1.7,0,2.8-1.3,2.8-3.2c0-1.9-1.1-3.2-2.8-3.2c-1,0-2,0.5-2.5,1.3v3.9
					C506.3,452.4,507.4,452.9,508.3,452.9z"/>
				<path class="st1" d="M523.4,455.2v-1.4c-0.7,0.8-2.1,1.7-3.9,1.7c-2.4,0-3.5-1.3-3.5-3.4v-7.8h2.9v6.7c0,1.5,0.8,2,2,2
					c1.1,0,2-0.6,2.5-1.2v-7.4h2.9v11H523.4z"/>
				<path class="st1" d="M528,453.8l1.2-2.1c0.8,0.8,2.4,1.5,3.8,1.5c1.2,0,1.8-0.5,1.8-1.2c0-1.8-6.5-0.3-6.5-4.6
					c0-1.8,1.6-3.5,4.5-3.5c1.8,0,3.3,0.6,4.4,1.5l-1.2,2c-0.7-0.7-1.9-1.3-3.2-1.3c-1,0-1.7,0.5-1.7,1.1c0,1.6,6.5,0.2,6.5,4.7
					c0,2-1.7,3.5-4.8,3.5C531,455.5,529.1,454.9,528,453.8z"/>
				<path class="st1" d="M539.3,441.4c0-1,0.8-1.7,1.7-1.7c1,0,1.7,0.7,1.7,1.7c0,1-0.8,1.7-1.7,1.7
					C540,443.1,539.3,442.3,539.3,441.4z M539.5,455.2v-11h2.9v11H539.5z"/>
				<path class="st1" d="M552.4,455.2v-6.6c0-1.5-0.8-2-2-2c-1.1,0-2,0.6-2.5,1.3v7.4H545v-11h2.9v1.4c0.7-0.8,2.1-1.7,3.8-1.7
					c2.4,0,3.6,1.4,3.6,3.5v7.7H552.4z"/>
				<path class="st1" d="M557.2,449.7c0-3.2,2.4-5.7,5.7-5.7c3.3,0,5.5,2.5,5.5,6v0.7h-8.1c0.2,1.3,1.3,2.4,3.2,2.4
					c0.9,0,2.2-0.4,2.9-1.1l1.3,1.9c-1.1,1-2.8,1.5-4.5,1.5C559.8,455.5,557.2,453.3,557.2,449.7z M562.9,446.4
					c-1.8,0-2.6,1.2-2.7,2.3h5.4C565.6,447.6,564.8,446.4,562.9,446.4z"/>
				<path class="st1" d="M569.3,453.8l1.2-2.1c0.8,0.8,2.4,1.5,3.8,1.5c1.2,0,1.8-0.5,1.8-1.2c0-1.8-6.5-0.3-6.5-4.6
					c0-1.8,1.6-3.5,4.5-3.5c1.8,0,3.3,0.6,4.4,1.5l-1.2,2c-0.7-0.7-1.9-1.3-3.2-1.3c-1,0-1.7,0.5-1.7,1.1c0,1.6,6.5,0.2,6.5,4.7
					c0,2-1.7,3.5-4.8,3.5C572.3,455.5,570.5,454.9,569.3,453.8z"/>
				<path class="st1" d="M579.9,453.8l1.2-2.1c0.8,0.8,2.4,1.5,3.8,1.5c1.2,0,1.8-0.5,1.8-1.2c0-1.8-6.5-0.3-6.5-4.6
					c0-1.8,1.6-3.5,4.5-3.5c1.8,0,3.3,0.6,4.4,1.5l-1.2,2c-0.7-0.7-1.9-1.3-3.2-1.3c-1,0-1.7,0.5-1.7,1.1c0,1.6,6.5,0.2,6.5,4.7
					c0,2-1.7,3.5-4.8,3.5C582.9,455.5,581.1,454.9,579.9,453.8z"/>
				<path class="st1" d="M606.7,455.2l-2.3-7.5l-2.3,7.5H599l-3.3-11h3l2,7.4l2.4-7.4h2.6l2.4,7.4l2-7.4h3l-3.3,11H606.7z"/>
				<path class="st1" d="M614,441.4c0-1,0.8-1.7,1.7-1.7c1,0,1.7,0.7,1.7,1.7c0,1-0.8,1.7-1.7,1.7C614.8,443.1,614,442.3,614,441.4z
					 M614.3,455.2v-11h2.9v11H614.3z"/>
				<path class="st1" d="M620.4,452.5v-5.7h-1.8v-2.5h1.8v-3h2.9v3h2.2v2.5h-2.2v4.9c0,0.7,0.4,1.2,1,1.2c0.4,0,0.8-0.2,1-0.3
					l0.6,2.2c-0.4,0.4-1.2,0.7-2.4,0.7C621.5,455.5,620.4,454.5,620.4,452.5z"/>
				<path class="st1" d="M634.7,455.2v-6.7c0-1.5-0.8-2-2-2c-1.1,0-2,0.6-2.5,1.3v7.4h-2.9v-15.1h2.9v5.6c0.7-0.8,2-1.7,3.8-1.7
					c2.4,0,3.6,1.3,3.6,3.5v7.8H634.7z"/>
				<path class="st1" d="M653.4,455.2v-1.4c-0.9,1.1-2,1.7-3.4,1.7c-2.7,0-4.9-2.1-4.9-5.8c0-3.6,2.1-5.7,4.9-5.7
					c1.3,0,2.5,0.5,3.4,1.7v-5.6h2.9v15.1H653.4z M653.4,451.7v-3.9c-0.5-0.7-1.5-1.2-2.5-1.2c-1.7,0-2.8,1.3-2.8,3.2
					c0,1.9,1.1,3.2,2.8,3.2C651.8,452.9,652.9,452.4,653.4,451.7z"/>
				<path class="st1" d="M658.6,441.4c0-1,0.8-1.7,1.7-1.7c1,0,1.7,0.7,1.7,1.7c0,1-0.8,1.7-1.7,1.7
					C659.4,443.1,658.6,442.3,658.6,441.4z M658.9,455.2v-11h2.9v11H658.9z"/>
				<path class="st1" d="M664.2,458l1.3-2.1c0.9,1,2.1,1.3,3.4,1.3c1.4,0,3-0.6,3-2.8v-1.1c-0.9,1.1-2,1.7-3.4,1.7
					c-2.7,0-4.8-1.9-4.8-5.6c0-3.6,2.1-5.6,4.8-5.6c1.3,0,2.5,0.5,3.4,1.7v-1.4h2.9v10.2c0,4.2-3.2,5.2-5.9,5.2
					C667,459.7,665.6,459.2,664.2,458z M671.9,451.3v-3.6c-0.5-0.7-1.5-1.2-2.5-1.2c-1.7,0-2.8,1.1-2.8,3c0,1.9,1.1,3,2.8,3
					C670.4,452.6,671.4,452,671.9,451.3z"/>
				<path class="st1" d="M677.2,441.4c0-1,0.8-1.7,1.7-1.7c1,0,1.7,0.7,1.7,1.7c0,1-0.8,1.7-1.7,1.7
					C678,443.1,677.2,442.3,677.2,441.4z M677.5,455.2v-11h2.9v11H677.5z"/>
				<path class="st1" d="M683.6,452.5v-5.7h-1.8v-2.5h1.8v-3h2.9v3h2.2v2.5h-2.2v4.9c0,0.7,0.4,1.2,1,1.2c0.4,0,0.8-0.2,1-0.3
					l0.6,2.2c-0.4,0.4-1.2,0.7-2.4,0.7C684.6,455.5,683.6,454.5,683.6,452.5z"/>
				<path class="st1" d="M697,455.2v-1.2c-0.7,0.9-2,1.4-3.5,1.4c-1.7,0-3.8-1.2-3.8-3.6c0-2.6,2-3.5,3.8-3.5c1.5,0,2.7,0.5,3.5,1.3
					v-1.4c0-1.1-1-1.8-2.4-1.8c-1.2,0-2.2,0.5-3.2,1.3l-1.1-2c1.3-1.2,3.1-1.7,4.8-1.7c2.5,0,4.8,1,4.8,4.2v7.1H697z M697,452.6
					v-1.4c-0.5-0.6-1.4-1-2.3-1c-1.1,0-2.1,0.6-2.1,1.7s0.9,1.6,2.1,1.6C695.6,453.5,696.5,453.2,697,452.6z"/>
				<path class="st1" d="M702.5,455.2v-15.1h2.9v15.1H702.5z"/>
				<path class="st1" d="M720.2,455.2v-1.2c-0.7,0.9-2,1.4-3.5,1.4c-1.7,0-3.8-1.2-3.8-3.6c0-2.6,2-3.5,3.8-3.5
					c1.5,0,2.7,0.5,3.5,1.3v-1.4c0-1.1-1-1.8-2.4-1.8c-1.2,0-2.2,0.5-3.2,1.3l-1.1-2c1.3-1.2,3.1-1.7,4.8-1.7c2.5,0,4.8,1,4.8,4.2
					v7.1H720.2z M720.2,452.6v-1.4c-0.5-0.6-1.4-1-2.3-1c-1.1,0-2.1,0.6-2.1,1.7s0.9,1.6,2.1,1.6
					C718.8,453.5,719.7,453.2,720.2,452.6z"/>
				<path class="st1" d="M726.3,452.5v-5.7h-1.8v-2.5h1.8v-3h2.9v3h2.2v2.5h-2.2v4.9c0,0.7,0.4,1.2,1,1.2c0.4,0,0.8-0.2,1-0.3
					l0.6,2.2c-0.4,0.4-1.2,0.7-2.4,0.7C727.4,455.5,726.3,454.5,726.3,452.5z"/>
				<path class="st1" d="M737.8,453.8l1.2-2.1c0.8,0.8,2.4,1.5,3.8,1.5c1.2,0,1.8-0.5,1.8-1.2c0-1.8-6.5-0.3-6.5-4.6
					c0-1.8,1.6-3.5,4.5-3.5c1.8,0,3.3,0.6,4.4,1.5l-1.2,2c-0.7-0.7-1.9-1.3-3.2-1.3c-1,0-1.7,0.5-1.7,1.1c0,1.6,6.5,0.2,6.5,4.7
					c0,2-1.7,3.5-4.8,3.5C740.8,455.5,739,454.9,737.8,453.8z"/>
				<path class="st1" d="M748.7,449.7c0-3.4,2.5-5.7,5.8-5.7c2.2,0,3.6,1,4.3,2l-1.9,1.8c-0.5-0.8-1.3-1.2-2.3-1.2
					c-1.7,0-3,1.3-3,3.2c0,1.9,1.2,3.2,3,3.2c1,0,1.8-0.5,2.3-1.2l1.9,1.8c-0.7,1-2.1,2-4.3,2C751.1,455.5,748.7,453.1,748.7,449.7z
					"/>
				<path class="st1" d="M767,455.2v-1.2c-0.7,0.9-2,1.4-3.5,1.4c-1.7,0-3.8-1.2-3.8-3.6c0-2.6,2-3.5,3.8-3.5c1.5,0,2.7,0.5,3.5,1.3
					v-1.4c0-1.1-1-1.8-2.4-1.8c-1.2,0-2.2,0.5-3.2,1.3l-1.1-2c1.3-1.2,3.1-1.7,4.8-1.7c2.5,0,4.8,1,4.8,4.2v7.1H767z M767,452.6
					v-1.4c-0.5-0.6-1.4-1-2.3-1c-1.1,0-2.1,0.6-2.1,1.7s0.9,1.6,2.1,1.6C765.7,453.5,766.6,453.2,767,452.6z"/>
				<path class="st1" d="M772.6,455.2v-15.1h2.9v15.1H772.6z"/>
				<path class="st1" d="M777.4,449.7c0-3.2,2.4-5.7,5.7-5.7c3.3,0,5.5,2.5,5.5,6v0.7h-8.1c0.2,1.3,1.3,2.4,3.2,2.4
					c0.9,0,2.2-0.4,2.9-1.1l1.3,1.9c-1.1,1-2.8,1.5-4.5,1.5C779.9,455.5,777.4,453.3,777.4,449.7z M783,446.4
					c-1.8,0-2.6,1.2-2.7,2.3h5.4C785.7,447.6,784.9,446.4,783,446.4z"/>
				<path class="st1" d="M802.6,455.2v-1.2c-0.7,0.9-2,1.4-3.5,1.4c-1.7,0-3.8-1.2-3.8-3.6c0-2.6,2-3.5,3.8-3.5
					c1.5,0,2.7,0.5,3.5,1.3v-1.4c0-1.1-1-1.8-2.4-1.8c-1.2,0-2.2,0.5-3.2,1.3l-1.1-2c1.3-1.2,3.1-1.7,4.8-1.7c2.5,0,4.8,1,4.8,4.2
					v7.1H802.6z M802.6,452.6v-1.4c-0.5-0.6-1.4-1-2.3-1c-1.1,0-2.1,0.6-2.1,1.7s0.9,1.6,2.1,1.6
					C801.2,453.5,802.1,453.2,802.6,452.6z"/>
				<path class="st1" d="M815.5,455.2v-6.6c0-1.5-0.8-2-2-2c-1.1,0-2,0.6-2.5,1.3v7.4h-2.9v-11h2.9v1.4c0.7-0.8,2.1-1.7,3.8-1.7
					c2.4,0,3.6,1.4,3.6,3.5v7.7H815.5z"/>
				<path class="st1" d="M828.5,455.2v-1.4c-0.9,1.1-2,1.7-3.4,1.7c-2.7,0-4.9-2.1-4.9-5.8c0-3.6,2.1-5.7,4.9-5.7
					c1.3,0,2.5,0.5,3.4,1.7v-5.6h2.9v15.1H828.5z M828.5,451.7v-3.9c-0.5-0.7-1.5-1.2-2.5-1.2c-1.7,0-2.8,1.3-2.8,3.2
					c0,1.9,1.1,3.2,2.8,3.2C827,452.9,828.1,452.4,828.5,451.7z"/>
				<path class="st1" d="M838.7,453.8l1.2-2.1c0.8,0.8,2.4,1.5,3.8,1.5c1.2,0,1.8-0.5,1.8-1.2c0-1.8-6.5-0.3-6.5-4.6
					c0-1.8,1.6-3.5,4.5-3.5c1.8,0,3.3,0.6,4.4,1.5l-1.2,2c-0.7-0.7-1.9-1.3-3.2-1.3c-1,0-1.7,0.5-1.7,1.1c0,1.6,6.5,0.2,6.5,4.7
					c0,2-1.7,3.5-4.8,3.5C841.7,455.5,839.9,454.9,838.7,453.8z"/>
				<path class="st1" d="M853.2,453.8v5.6h-2.9v-15.1h2.9v1.4c0.8-1.1,2-1.7,3.4-1.7c2.8,0,4.9,2.1,4.9,5.7c0,3.7-2,5.8-4.9,5.8
					C855.3,455.5,854.1,455,853.2,453.8z M858.4,449.7c0-1.9-1.1-3.2-2.8-3.2c-0.9,0-2,0.5-2.5,1.2v3.9c0.5,0.7,1.5,1.3,2.5,1.3
					C857.3,452.9,858.4,451.6,858.4,449.7z"/>
				<path class="st1" d="M862.6,449.7c0-3.2,2.4-5.7,5.7-5.7c3.3,0,5.5,2.5,5.5,6v0.7h-8.1c0.2,1.3,1.3,2.4,3.2,2.4
					c0.9,0,2.2-0.4,2.9-1.1l1.3,1.9c-1.1,1-2.8,1.5-4.5,1.5C865.1,455.5,862.6,453.3,862.6,449.7z M868.3,446.4
					c-1.8,0-2.6,1.2-2.7,2.3h5.4C870.9,447.6,870.2,446.4,868.3,446.4z"/>
				<path class="st1" d="M874.9,449.7c0-3.2,2.4-5.7,5.7-5.7c3.3,0,5.5,2.5,5.5,6v0.7h-8.1c0.2,1.3,1.3,2.4,3.2,2.4
					c0.9,0,2.2-0.4,2.9-1.1l1.3,1.9c-1.1,1-2.8,1.5-4.5,1.5C877.4,455.5,874.9,453.3,874.9,449.7z M880.6,446.4
					c-1.8,0-2.6,1.2-2.7,2.3h5.4C883.2,447.6,882.5,446.4,880.6,446.4z"/>
				<path class="st1" d="M895.5,455.2v-1.4c-0.9,1.1-2,1.7-3.4,1.7c-2.7,0-4.9-2.1-4.9-5.8c0-3.6,2.1-5.7,4.9-5.7
					c1.3,0,2.5,0.5,3.4,1.7v-5.6h2.9v15.1H895.5z M895.5,451.7v-3.9c-0.5-0.7-1.5-1.2-2.5-1.2c-1.7,0-2.8,1.3-2.8,3.2
					c0,1.9,1.1,3.2,2.8,3.2C893.9,452.9,895,452.4,895.5,451.7z"/>
				<path class="st1" d="M900.6,453.6c0-1,0.8-1.8,1.8-1.8s1.8,0.8,1.8,1.8c0,1-0.8,1.8-1.8,1.8S900.6,454.6,900.6,453.6z"/>
			</g>
		</g>
		<g id="advance_it.">
			<g>
				<path class="st2" d="M253.2,330.5v-10.2c-6.6,8-18,12.6-30.5,12.6c-15.4,0-33.3-10.4-33.3-32c0-22.8,18-31.2,33.3-31.2
					c13,0,24.1,4.2,30.5,11.8v-12.2c0-9.8-8.4-16.2-21.1-16.2c-10.2,0-19.8,4-27.7,11.4l-10-17.8c11.8-10.6,26.9-15.2,42.1-15.2
					c22.1,0,42.3,8.8,42.3,36.6v62.3H253.2z M253.2,307.4v-12c-4.2-5.6-12.2-8.6-20.4-8.6c-10,0-18.2,5.4-18.2,14.6
					c0,9.2,8.2,14.4,18.2,14.4C241,315.8,249,313,253.2,307.4z"/>
				<path class="st2" d="M358,330.5v-12.4c-7.6,9.6-18,14.8-29.7,14.8c-24.1,0-42.7-18.4-42.7-50.7c0-31.4,18.2-50.5,42.7-50.5
					c11.4,0,22.1,4.8,29.7,14.8v-49.1h25.5v133.3H358z M358,299.4v-34.2c-4.2-6.4-13.4-11-21.7-11c-14.6,0-24.5,11.4-24.5,28
					c0,16.8,10,28.2,24.5,28.2C344.6,310.4,353.8,305.8,358,299.4z"/>
				<path class="st2" d="M426.6,330.5L387.9,234H415l25.1,67.1l25.3-67.1h27.1l-38.7,96.5H426.6z"/>
				<path class="st2" d="M549.9,330.5v-10.2c-6.6,8-18,12.6-30.5,12.6c-15.4,0-33.3-10.4-33.3-32c0-22.8,18-31.2,33.3-31.2
					c13,0,24.1,4.2,30.5,11.8v-12.2c0-9.8-8.4-16.2-21.1-16.2c-10.2,0-19.8,4-27.7,11.4l-10-17.8c11.8-10.6,26.9-15.2,42.1-15.2
					c22.1,0,42.3,8.8,42.3,36.6v62.3H549.9z M549.9,307.4v-12c-4.2-5.6-12.2-8.6-20.4-8.6c-10,0-18.2,5.4-18.2,14.6
					c0,9.2,8.2,14.4,18.2,14.4C537.7,315.8,545.7,313,549.9,307.4z"/>
				<path class="st2" d="M653.5,330.5v-58.3c0-13.4-7-18-17.8-18c-10,0-17.6,5.6-21.9,11.2v65.1h-25.3V234h25.3v12.4
					c6.2-7.2,18.2-14.8,33.7-14.8c21.3,0,31.5,12,31.5,30.8v68.1H653.5z"/>
				<path class="st2" d="M685.8,282.2c0-29.6,21.5-50.5,51.1-50.5c19.8,0,31.7,8.6,38.1,17.4l-16.6,15.6
					c-4.6-6.8-11.6-10.4-20.4-10.4c-15.4,0-26.1,11.2-26.1,28s10.8,28.2,26.1,28.2c8.8,0,15.8-4,20.4-10.6l16.6,15.6
					c-6.4,8.8-18.4,17.6-38.1,17.6C707.3,332.9,685.8,312,685.8,282.2z"/>
				<path class="st2" d="M773.4,282.2c0-28,20.8-50.5,49.9-50.5c28.9,0,48.3,21.6,48.3,52.9v6h-71.6c1.8,11.8,11.4,21.6,27.7,21.6
					c8.2,0,19.4-3.4,25.5-9.4l11.4,16.8c-9.6,8.8-24.7,13.4-39.7,13.4C795.5,332.9,773.4,313.2,773.4,282.2z M823.3,252.4
					c-15.8,0-22.5,11-23.5,20.6h47.5C846.4,263.8,840,252.4,823.3,252.4z"/>
				<path class="st2" d="M911.8,208.5c0-8.4,6.8-15,15-15c8.4,0,15.2,6.6,15.2,15c0,8.4-6.8,15.2-15.2,15.2
					C918.6,223.7,911.8,216.9,911.8,208.5z M914.2,330.5V234h25.3v96.5H914.2z"/>
				<path class="st2" d="M960.9,306.4v-50.1h-16V234h16v-26.4h25.3V234h19.6v22.2h-19.6v43.4c0,6.2,3.2,10.8,8.8,10.8
					c3.8,0,7.4-1.4,8.8-3l5.4,19.4c-3.8,3.4-10.6,6.2-21.1,6.2C970.3,332.9,960.9,323.8,960.9,306.4z"/>
				<path class="st2" d="M1013,316.6c0-8.8,7.4-16.2,16.2-16.2c8.8,0,16.2,7.4,16.2,16.2c0,8.8-7.4,16.2-16.2,16.2
					C1020.4,332.7,1013,325.3,1013,316.6z"/>
			</g>
		</g>
		<g id="It_must">
			<g>
				<path class="st1" d="M154.3,241.5v-27.9h2.4v27.9H154.3z"/>
				<path class="st1" d="M163.5,237.6v-14.4h-3.3v-1.9h3.3v-5.5h2.2v5.5h4.1v1.9h-4.1v14.1c0,1.6,0.7,2.8,2.1,2.8c1,0,1.8-0.5,2.3-1
					l0.8,1.7c-0.8,0.8-1.8,1.3-3.4,1.3C164.8,242,163.5,240.4,163.5,237.6z"/>
				<path class="st1" d="M208.6,241.5v-14.2c0-2.8-1.2-4.6-4-4.6c-2.2,0-4.6,1.6-5.8,3.4v15.3h-2.2v-14.2c0-2.8-1.2-4.6-4-4.6
					c-2.2,0-4.6,1.6-5.8,3.5v15.3h-2.2v-20.2h2.2v3.1c0.8-1.3,3.6-3.6,6.5-3.6c3.1,0,4.8,1.8,5.3,3.8c1.1-1.9,3.8-3.8,6.7-3.8
					c3.7,0,5.5,2.1,5.5,6.2v14.6H208.6z"/>
				<path class="st1" d="M230.7,241.5v-3c-1.6,1.8-4.3,3.5-7.3,3.5c-4.1,0-6.3-1.9-6.3-6.5v-14.2h2.2V235c0,3.9,2,5,4.9,5
					c2.6,0,5.2-1.6,6.6-3.4v-15.4h2.2v20.2H230.7z"/>
				<path class="st1" d="M237.4,238.8l1.3-1.6c1.3,1.6,3.7,3,6.5,3c3.4,0,5.4-1.8,5.4-4.1c0-5.5-12.7-2.4-12.7-9.7
					c0-3.1,2.6-5.6,7.2-5.6c3.5,0,5.8,1.3,7.2,3l-1.2,1.6c-1.2-1.6-3.3-2.7-6-2.7c-3.1,0-5,1.6-5,3.7c0,5.1,12.7,2,12.7,9.8
					c0,3.3-2.5,6-7.6,6C242,242,239.4,241.1,237.4,238.8z"/>
				<path class="st1" d="M258.4,237.6v-14.4H255v-1.9h3.3v-5.5h2.2v5.5h4.1v1.9h-4.1v14.1c0,1.6,0.7,2.8,2.1,2.8c1,0,1.8-0.5,2.3-1
					l0.8,1.7c-0.8,0.8-1.8,1.3-3.4,1.3C259.6,242,258.4,240.4,258.4,237.6z"/>
			</g>
		</g>
		<g id="Technology">
			<g>
				<path class="st2" d="M267.9,149V87.7h-22V73.5h60v14.1H284V149H267.9z"/>
				<path class="st2" d="M295.6,121.6c0-15.8,11.7-28.6,28.2-28.6c16.4,0,27.3,12.2,27.3,30v3.4h-40.5c1,6.7,6.4,12.2,15.7,12.2
					c4.6,0,10.9-1.9,14.4-5.3l6.4,9.5c-5.4,5-14,7.6-22.5,7.6C308.2,150.3,295.6,139.1,295.6,121.6z M323.8,104.7
					c-8.9,0-12.7,6.2-13.3,11.7h26.9C336.9,111.2,333.3,104.7,323.8,104.7z"/>
				<path class="st2" d="M352.4,121.6c0-16.7,12.2-28.6,28.9-28.6c11.2,0,17.9,4.9,21.5,9.8l-9.4,8.8c-2.6-3.8-6.5-5.9-11.5-5.9
					c-8.7,0-14.8,6.3-14.8,15.8s6.1,16,14.8,16c5,0,8.9-2.3,11.5-6l9.4,8.8c-3.6,5-10.4,10-21.5,10
					C364.6,150.3,352.4,138.5,352.4,121.6z"/>
				<path class="st2" d="M443.4,149v-33.3c0-7.6-3.9-10-10-10c-5.6,0-10,3.2-12.4,6.3V149h-14.4V73.5H421v27.8
					c3.5-4.1,10.2-8.4,19.1-8.4c12,0,17.7,6.6,17.7,17.2V149H443.4z"/>
				<path class="st2" d="M503.1,149v-33c0-7.6-3.9-10.2-10-10.2c-5.6,0-9.9,3.2-12.4,6.3V149h-14.3V94.3h14.3v7
					c3.5-4.1,10.3-8.4,19.1-8.4c12.1,0,17.8,6.8,17.8,17.4V149H503.1z"/>
				<path class="st2" d="M522.5,121.6c0-15.5,10.8-28.6,28.8-28.6c18.1,0,28.9,13.1,28.9,28.6c0,15.5-10.8,28.7-28.9,28.7
					C533.3,150.3,522.5,137.1,522.5,121.6z M565.3,121.6c0-8.5-5-15.8-14-15.8c-8.9,0-13.9,7.4-13.9,15.8c0,8.6,5,16,13.9,16
					C560.3,137.6,565.3,130.2,565.3,121.6z"/>
				<path class="st2" d="M585.2,149V73.5h14.3V149H585.2z"/>
				<path class="st2" d="M604.7,121.6c0-15.5,10.8-28.6,28.8-28.6c18.1,0,28.9,13.1,28.9,28.6c0,15.5-10.8,28.7-28.9,28.7
					C615.5,150.3,604.7,137.1,604.7,121.6z M647.4,121.6c0-8.5-5-15.8-14-15.8c-8.9,0-13.9,7.4-13.9,15.8c0,8.6,5,16,13.9,16
					C642.4,137.6,647.4,130.2,647.4,121.6z"/>
				<path class="st2" d="M666.3,163l6.4-10.3c4.4,4.8,10.3,6.7,17,6.7c6.9,0,15.1-2.9,15.1-14V140c-4.3,5.4-10.2,8.5-16.9,8.5
					c-13.5,0-24-9.5-24-27.7c0-17.9,10.3-27.8,24-27.8c6.5,0,12.5,2.7,16.9,8.4v-7h14.3v51c0,20.7-16,25.8-29.4,25.8
					C680.5,171.2,673.1,169,666.3,163z M704.8,129.6v-17.8c-2.5-3.5-7.7-6.1-12.3-6.1c-8.2,0-13.9,5.7-13.9,15s5.6,15,13.9,15
					C697.2,135.9,702.4,133.1,704.8,129.6z"/>
				<path class="st2" d="M728,157.5c1.2,0.6,3.2,0.9,4.5,0.9c3.7,0,6.2-1,7.6-4l2-4.8L720,94.3h15.3l14.2,38l14.3-38h15.3
					l-25.6,63.6c-4.1,10.3-11.3,13-20.6,13.2c-1.6,0-5.3-0.3-7-0.9L728,157.5z"/>
			</g>
		</g>
		<g id="must_go">
			<g>
				<path class="st1" d="M781.1,132.1v-11c0-2.2-0.9-3.6-3.2-3.6c-1.7,0-3.6,1.2-4.5,2.7v11.9h-1.7v-11c0-2.2-0.9-3.6-3.1-3.6
					c-1.7,0-3.6,1.3-4.5,2.7v11.9h-1.7v-15.7h1.7v2.4c0.7-1,2.8-2.8,5.1-2.8c2.4,0,3.7,1.4,4.1,3c0.9-1.5,3-3,5.2-3
					c2.9,0,4.3,1.6,4.3,4.8v11.3H781.1z"/>
				<path class="st1" d="M798.4,132.1v-2.3c-1.3,1.4-3.4,2.7-5.7,2.7c-3.2,0-4.9-1.5-4.9-5v-11.1h1.7v10.7c0,3.1,1.5,3.9,3.8,3.9
					c2,0,4.1-1.2,5.1-2.6v-12h1.7v15.7H798.4z"/>
				<path class="st1" d="M803.6,130l1-1.2c1,1.3,2.9,2.3,5.1,2.3c2.6,0,4.2-1.4,4.2-3.2c0-4.3-9.9-1.9-9.9-7.5c0-2.4,2-4.4,5.6-4.4
					c2.7,0,4.5,1,5.6,2.3l-0.9,1.2c-0.9-1.2-2.6-2.1-4.7-2.1c-2.4,0-3.9,1.2-3.9,2.9c0,3.9,9.9,1.5,9.9,7.6c0,2.5-1.9,4.6-5.9,4.6
					C807.1,132.5,805.2,131.8,803.6,130z"/>
				<path class="st1" d="M819.9,129.1v-11.2h-2.6v-1.5h2.6v-4.3h1.7v4.3h3.2v1.5h-3.2v10.9c0,1.3,0.5,2.2,1.6,2.2
					c0.7,0,1.4-0.4,1.8-0.7l0.6,1.3c-0.6,0.6-1.4,1-2.7,1C820.9,132.5,819.9,131.2,819.9,129.1z"/>
				<path class="st1" d="M836.3,136.1l1-1.4c1.4,1.6,2.9,2.2,5.2,2.2c2.8,0,5.3-1.4,5.3-5v-2.5c-1.1,1.6-3.1,3-5.5,3
					c-4.2,0-7-3.2-7-8.2c0-5,2.8-8.2,7-8.2c2.2,0,4.2,1.1,5.5,2.9v-2.5h1.7V132c0,4.8-3.2,6.5-7,6.5
					C839.8,138.5,838.2,138,836.3,136.1z M847.8,128.1v-7.7c-0.9-1.5-3-2.9-5.2-2.9c-3.5,0-5.5,2.9-5.5,6.7s2,6.7,5.5,6.7
					C844.9,130.9,846.9,129.6,847.8,128.1z"/>
				<path class="st1" d="M853.6,124.2c0-4.6,2.9-8.2,7.5-8.2c4.6,0,7.6,3.6,7.6,8.2s-2.9,8.3-7.6,8.3
					C856.5,132.5,853.6,128.8,853.6,124.2z M866.8,124.2c0-3.5-2-6.7-5.8-6.7c-3.6,0-5.7,3.2-5.7,6.7c0,3.5,2.1,6.7,5.7,6.7
					C864.8,131,866.8,127.8,866.8,124.2z"/>
			</g>
		</g>
		<g id="supporting_business.">
			<g>
				<path class="st1" d="M556.4,204.7l1.5-2.2c1.3,1.5,3.7,2.8,6.3,2.8c3,0,4.6-1.4,4.6-3.3c0-4.7-11.9-1.8-11.9-9
					c0-3,2.6-5.6,7.1-5.6c3.3,0,5.6,1.2,7.1,2.8l-1.4,2.1c-1.2-1.4-3.2-2.4-5.7-2.4c-2.6,0-4.3,1.3-4.3,3c0,4.2,11.9,1.4,11.9,9
					c0,3.2-2.6,5.8-7.5,5.8C561,207.7,558.3,206.7,556.4,204.7z"/>
				<path class="st1" d="M589.2,207.2v-2.7c-1.5,1.7-4,3.2-6.9,3.2c-4,0-6.1-2-6.1-6.2v-13.6h3v12.7c0,3.4,1.7,4.4,4.3,4.4
					c2.3,0,4.5-1.4,5.7-2.9v-14.2h3v19.3H589.2z"/>
				<path class="st1" d="M600.7,204.3v10.3h-3v-26.7h3v2.9c1.4-2,3.8-3.4,6.5-3.4c5.1,0,8.6,3.8,8.6,10.1c0,6.2-3.5,10.2-8.6,10.2
					C604.6,207.7,602.3,206.4,600.7,204.3z M612.6,197.5c0-4.3-2.3-7.4-6.2-7.4c-2.4,0-4.7,1.4-5.7,3.1v8.7c1,1.7,3.4,3.1,5.7,3.1
					C610.3,205,612.6,201.8,612.6,197.5z"/>
				<path class="st1" d="M623.1,204.3v10.3h-3v-26.7h3v2.9c1.4-2,3.8-3.4,6.5-3.4c5.1,0,8.6,3.8,8.6,10.1c0,6.2-3.5,10.2-8.6,10.2
					C627,207.7,624.7,206.4,623.1,204.3z M635.1,197.5c0-4.3-2.3-7.4-6.2-7.4c-2.4,0-4.7,1.4-5.7,3.1v8.7c1,1.7,3.4,3.1,5.7,3.1
					C632.7,205,635.1,201.8,635.1,197.5z"/>
				<path class="st1" d="M641.4,197.5c0-5.6,3.7-10.1,9.5-10.1s9.5,4.5,9.5,10.1s-3.7,10.2-9.5,10.2S641.4,203.1,641.4,197.5z
					 M657.4,197.5c0-3.9-2.3-7.4-6.4-7.4s-6.4,3.5-6.4,7.4c0,4,2.3,7.5,6.4,7.5S657.4,201.5,657.4,197.5z"/>
				<path class="st1" d="M665,207.2v-19.3h3v3.1c1.6-2,3.8-3.5,6.4-3.5v3.1c-0.4,0-0.7-0.1-1.2-0.1c-1.9,0-4.4,1.5-5.3,3.1v13.7H665
					z"/>
				<path class="st1" d="M678.3,203.2v-12.6h-3.2v-2.6h3.2v-5.3h3v5.3h3.9v2.6h-3.9v12c0,1.4,0.6,2.5,1.9,2.5c0.9,0,1.6-0.4,2-0.8
					l0.9,2.3c-0.8,0.7-1.8,1.2-3.5,1.2C679.8,207.7,678.3,206.1,678.3,203.2z"/>
				<path class="st1" d="M688.5,183.1c0-1.1,0.9-2,2-2c1.1,0,2,0.9,2,2c0,1.1-0.9,2-2,2C689.5,185.1,688.5,184.3,688.5,183.1z
					 M689.1,207.2v-19.3h3v19.3H689.1z"/>
				<path class="st1" d="M710.7,207.2v-12.6c0-3.4-1.8-4.5-4.3-4.5c-2.4,0-4.5,1.4-5.7,3v14.1h-3v-19.3h3v2.8c1.4-1.6,4-3.3,6.9-3.3
					c4,0,6.1,2,6.1,6.2v13.6H710.7z"/>
				<path class="st1" d="M719.2,212.1l1.5-2.2c1.6,1.9,3.5,2.6,6.3,2.6c3.2,0,6.2-1.6,6.2-5.6V204c-1.4,2-3.8,3.4-6.5,3.4
					c-5,0-8.6-3.8-8.6-10c0-6.2,3.5-10,8.6-10c2.6,0,4.9,1.3,6.5,3.4v-2.9h3v19c0,6.1-4.5,8.1-9.2,8.1
					C723.8,215.1,721.5,214.4,719.2,212.1z M733.2,201.7v-8.5c-1.1-1.6-3.4-3.1-5.7-3.1c-3.9,0-6.2,3.1-6.2,7.4
					c0,4.2,2.3,7.3,6.2,7.3C729.8,204.8,732.1,203.3,733.2,201.7z"/>
				<path class="st1" d="M751.7,207.2v-26.7h3v10.3c1.6-2.1,3.9-3.4,6.5-3.4c5.1,0,8.6,4,8.6,10.2c0,6.3-3.6,10.1-8.6,10.1
					c-2.7,0-5.1-1.4-6.5-3.4v2.9H751.7z M760.5,205c3.9,0,6.2-3.2,6.2-7.4s-2.3-7.5-6.2-7.5c-2.4,0-4.7,1.4-5.8,3.1v8.8
					C755.7,203.7,758.1,205,760.5,205z"/>
				<path class="st1" d="M787.3,207.2v-2.7c-1.5,1.7-4,3.2-6.9,3.2c-4,0-6.1-2-6.1-6.2v-13.6h3v12.7c0,3.4,1.7,4.4,4.3,4.4
					c2.3,0,4.5-1.4,5.7-2.9v-14.2h3v19.3H787.3z"/>
				<path class="st1" d="M794.2,204.7l1.5-2.2c1.3,1.5,3.7,2.8,6.3,2.8c3,0,4.6-1.4,4.6-3.3c0-4.7-11.9-1.8-11.9-9
					c0-3,2.6-5.6,7.1-5.6c3.3,0,5.6,1.2,7.1,2.8l-1.4,2.1c-1.2-1.4-3.2-2.4-5.7-2.4c-2.6,0-4.3,1.3-4.3,3c0,4.2,11.9,1.4,11.9,9
					c0,3.2-2.6,5.8-7.5,5.8C798.8,207.7,796.2,206.7,794.2,204.7z"/>
				<path class="st1" d="M813.5,183.1c0-1.1,0.9-2,2-2c1.1,0,2,0.9,2,2c0,1.1-0.9,2-2,2C814.4,185.1,813.5,184.3,813.5,183.1z
					 M814,207.2v-19.3h3v19.3H814z"/>
				<path class="st1" d="M835.6,207.2v-12.6c0-3.4-1.8-4.5-4.3-4.5c-2.4,0-4.5,1.4-5.7,3v14.1h-3v-19.3h3v2.8c1.4-1.6,4-3.3,6.9-3.3
					c4,0,6.1,2,6.1,6.2v13.6H835.6z"/>
				<path class="st1" d="M843.1,197.5c0-5.6,4-10.1,9.5-10.1c5.8,0,9.3,4.6,9.3,10.4v0.8h-15.6c0.2,3.6,2.8,6.7,6.9,6.7
					c2.2,0,4.4-0.9,6-2.5l1.4,2c-2,1.9-4.5,3-7.7,3C847.2,207.7,843.1,203.6,843.1,197.5z M852.5,189.9c-4.1,0-6.1,3.5-6.3,6.4h12.6
					C858.8,193.5,856.9,189.9,852.5,189.9z"/>
				<path class="st1" d="M864.6,204.7l1.5-2.2c1.3,1.5,3.7,2.8,6.3,2.8c3,0,4.6-1.4,4.6-3.3c0-4.7-11.9-1.8-11.9-9
					c0-3,2.6-5.6,7.1-5.6c3.3,0,5.6,1.2,7.1,2.8l-1.4,2.1c-1.2-1.4-3.2-2.4-5.7-2.4c-2.6,0-4.3,1.3-4.3,3c0,4.2,11.9,1.4,11.9,9
					c0,3.2-2.6,5.8-7.5,5.8C869.2,207.7,866.6,206.7,864.6,204.7z"/>
				<path class="st1" d="M882.7,204.7l1.5-2.2c1.3,1.5,3.7,2.8,6.3,2.8c3,0,4.6-1.4,4.6-3.3c0-4.7-11.9-1.8-11.9-9
					c0-3,2.6-5.6,7.1-5.6c3.3,0,5.6,1.2,7.1,2.8l-1.4,2.1c-1.2-1.4-3.2-2.4-5.7-2.4c-2.6,0-4.3,1.3-4.3,3c0,4.2,11.9,1.4,11.9,9
					c0,3.2-2.6,5.8-7.5,5.8C887.3,207.7,884.7,206.7,882.7,204.7z"/>
				<path class="st1" d="M901.9,205.4c0-1.2,1-2.2,2.2-2.2s2.2,1,2.2,2.2s-1,2.2-2.2,2.2S901.9,206.6,901.9,205.4z"/>
			</g>
		</g>
		<g id="beyond">
			<g>
				<path class="st1" d="M316.3,215.2V167h9.2v17.8c2.7-3.6,6.6-5.4,10.7-5.4c8.9,0,15.4,6.9,15.4,18.3c0,11.7-6.6,18.4-15.4,18.4
					c-4.2,0-8-1.9-10.7-5.4v4.5H316.3z M333.4,207.9c5.3,0,8.8-4.1,8.8-10.2c0-6-3.5-10.1-8.8-10.1c-3,0-6.3,1.7-7.9,4V204
					C327.1,206.3,330.4,207.9,333.4,207.9z"/>
				<path class="st1" d="M353.7,197.7c0-10.1,7.5-18.3,18-18.3c10.5,0,17.4,7.8,17.4,19.2v2.2h-25.9c0.6,4.3,4.1,7.8,10,7.8
					c3,0,7-1.2,9.2-3.4l4.1,6.1c-3.5,3.2-8.9,4.8-14.3,4.8C361.7,216.1,353.7,208.9,353.7,197.7z M371.8,187c-5.7,0-8.1,4-8.5,7.4
					h17.2C380.1,191.1,377.8,187,371.8,187z"/>
				<path class="st1" d="M392.4,220.7c0.8,0.4,2,0.6,2.9,0.6c2.4,0,4-0.7,4.8-2.5l1.3-3l-14.1-35.4h9.8l9.1,24.3l9.2-24.3h9.8
					l-16.4,40.6c-2.6,6.6-7.2,8.3-13.2,8.5c-1,0-3.4-0.2-4.5-0.6L392.4,220.7z"/>
				<path class="st1" d="M423.4,197.7c0-9.9,6.9-18.3,18.4-18.3c11.5,0,18.5,8.4,18.5,18.3c0,9.9-6.9,18.4-18.5,18.4
					C430.3,216.1,423.4,207.6,423.4,197.7z M450.7,197.7c0-5.4-3.2-10.1-8.9-10.1c-5.7,0-8.9,4.7-8.9,10.1c0,5.5,3.2,10.2,8.9,10.2
					C447.5,207.9,450.7,203.2,450.7,197.7z"/>
				<path class="st1" d="M486.9,215.2v-21.1c0-4.8-2.5-6.5-6.4-6.5c-3.6,0-6.3,2-7.9,4v23.6h-9.2v-34.9h9.2v4.5
					c2.2-2.6,6.6-5.4,12.2-5.4c7.7,0,11.4,4.3,11.4,11.1v24.7H486.9z"/>
				<path class="st1" d="M525.5,215.2v-4.5c-2.7,3.5-6.5,5.4-10.7,5.4c-8.7,0-15.4-6.7-15.4-18.4c0-11.4,6.6-18.3,15.4-18.3
					c4.1,0,8,1.7,10.7,5.4V167h9.2v48.2H525.5z M525.5,204v-12.4c-1.5-2.3-4.8-4-7.9-4c-5.3,0-8.9,4.1-8.9,10.1
					c0,6.1,3.6,10.2,8.9,10.2C520.7,207.9,524,206.3,525.5,204z"/>
			</g>
		</g>
		<g id="You_get_it.">
			<g>
				<path class="st1" d="M200,58.2v-9.3l-8.6-12.4h2.2l7.3,10.7l7.3-10.7h2.2l-8.6,12.4v9.3H200z"/>
				<path class="st1" d="M208.2,50.3c0-4.6,2.9-8.2,7.5-8.2c4.6,0,7.6,3.6,7.6,8.2s-2.9,8.3-7.6,8.3
					C211.2,58.6,208.2,54.9,208.2,50.3z M221.5,50.3c0-3.5-2-6.7-5.8-6.7c-3.6,0-5.7,3.2-5.7,6.7c0,3.5,2.1,6.7,5.7,6.7
					C219.4,57.1,221.5,53.9,221.5,50.3z"/>
				<path class="st1" d="M237.9,58.2v-2.3c-1.3,1.4-3.4,2.7-5.7,2.7c-3.2,0-4.9-1.5-4.9-5V42.5h1.7v10.7c0,3.1,1.5,3.9,3.8,3.9
					c2,0,4.1-1.2,5.1-2.6v-12h1.7v15.7H237.9z"/>
				<path class="st1" d="M252.7,62.2l1-1.4c1.4,1.6,2.9,2.2,5.2,2.2c2.8,0,5.3-1.4,5.3-5v-2.5c-1.1,1.6-3.1,3-5.5,3
					c-4.2,0-7-3.2-7-8.2c0-5,2.8-8.2,7-8.2c2.2,0,4.2,1.1,5.5,2.9v-2.5h1.7v15.6c0,4.8-3.2,6.5-7,6.5
					C256.2,64.6,254.5,64.1,252.7,62.2z M264.2,54.2v-7.7c-0.9-1.5-3-2.9-5.2-2.9c-3.5,0-5.5,2.9-5.5,6.7s2,6.7,5.5,6.7
					C261.2,57,263.3,55.7,264.2,54.2z"/>
				<path class="st1" d="M270,50.3c0-4.6,3.2-8.2,7.5-8.2c4.8,0,7.4,3.8,7.4,8.3v0.5h-13.1c0.2,3.4,2.4,6.3,6.1,6.3
					c2,0,3.8-0.7,5.1-2.2l0.9,1.1c-1.6,1.6-3.5,2.5-6.1,2.5C273.2,58.6,270,55.2,270,50.3z M277.5,43.6c-3.7,0-5.6,3.3-5.7,6h11.4
					C283.2,46.9,281.4,43.6,277.5,43.6z"/>
				<path class="st1" d="M289.3,55.2V44h-2.6v-1.5h2.6v-4.3h1.7v4.3h3.2V44H291v10.9c0,1.3,0.5,2.2,1.6,2.2c0.7,0,1.4-0.4,1.8-0.7
					l0.6,1.3c-0.6,0.6-1.4,1-2.7,1C290.3,58.6,289.3,57.3,289.3,55.2z"/>
				<path class="st1" d="M305.2,38.7c0-0.7,0.6-1.3,1.3-1.3c0.7,0,1.3,0.6,1.3,1.3c0,0.7-0.6,1.3-1.3,1.3
					C305.8,40,305.2,39.4,305.2,38.7z M305.6,58.2V42.5h1.7v15.7H305.6z"/>
				<path class="st1" d="M312.6,55.2V44H310v-1.5h2.6v-4.3h1.7v4.3h3.2V44h-3.2v10.9c0,1.3,0.5,2.2,1.6,2.2c0.7,0,1.4-0.4,1.8-0.7
					l0.6,1.3c-0.6,0.6-1.4,1-2.7,1C313.6,58.6,312.6,57.3,312.6,55.2z"/>
				<path class="st1" d="M320.4,57.1c0-0.7,0.7-1.4,1.5-1.4c0.8,0,1.4,0.7,1.4,1.4c0,0.8-0.6,1.4-1.4,1.4
					C321,58.5,320.4,57.9,320.4,57.1z"/>
			</g>
		</g>
	</g>
</g>
</svg>
